<svg xmlns="http://www.w3.org/2000/svg" width="117.649" height="128.652" viewBox="0 0 117.649 128.652">
  <g id="Group_2811" data-name="Group 2811" transform="translate(-473.698 -517.458)">
    <path id="Path_12964" data-name="Path 12964" d="M474.194,520.9,579.485,568.33l-27.571,15.175,35.957,36.277-16.549,15.3-37.725-34.6-14.08,29.293Z" transform="translate(0 10.676)"/>
    <path id="Path_12965" data-name="Path 12965" d="M474.194,520.9,579.485,568.33l-27.571,15.175,35.957,36.277-16.549,15.3-37.725-34.6-14.08,29.293Z" transform="translate(0 10.676)" fill="none" stroke="#000" stroke-width="0.523"/>
    <path id="Path_12966" data-name="Path 12966" d="M474.862,517.968,580.153,565.4l-27.571,15.175,35.957,36.277-16.549,15.3-37.725-34.6-14.08,29.293Z" transform="translate(2.432)" fill="#fff"/>
    <path id="Path_12967" data-name="Path 12967" d="M474.862,517.968,580.153,565.4l-27.571,15.175,35.957,36.277-16.549,15.3-37.725-34.6-14.08,29.293Z" transform="translate(2.432)" fill="none" stroke="#000" stroke-width="0.523"/>
  </g>
</svg>
