<svg xmlns="http://www.w3.org/2000/svg" xmlns:xlink="http://www.w3.org/1999/xlink" width="218.463" height="122.498" viewBox="0 0 218.463 122.498">
  <defs>
    <clipPath id="clip-path">
      <rect id="Rectangle_1329" data-name="Rectangle 1329" width="207.055" height="71.339" fill="none"/>
    </clipPath>
  </defs>
  <g id="Group_3046" data-name="Group 3046" transform="matrix(0.966, 0.259, -0.259, 0.966, 336.339, 19.208)">
    <g id="Group_2992" data-name="Group 2992" transform="translate(-312.015 63.719)" clip-path="url(#clip-path)">
      <path id="Path_13220" data-name="Path 13220" d="M64.672,23.45c.014-.072.03-.143.044-.215-.739-.412-1.467-.841-2.22-1.227a.613.613,0,0,0-.954.491c-.07.368-.447,1.026.243,1.088a19.672,19.672,0,0,0,2.888-.138M29.629,47.21c-.045.053-.088.083-.1.122a1.478,1.478,0,0,0-.072.27,3.972,3.972,0,0,1-1.386,2.544,3.825,3.825,0,0,0-1.406,3.092,6.6,6.6,0,0,1-.086.7c-.168,1.349-.077,1.428,1.313,1.344.407-.025.52-.186.541-.558a17.445,17.445,0,0,1,1.667-6.7c.274-.569-.023-.692-.469-.808m6.185-8.055c-.307.491-.545.8-.712,1.147a4.17,4.17,0,0,1-2.506,2.16c-.269.094-.529.21-.8.313a3.371,3.371,0,0,0-2.018,2.7c-.133.577.362.738.731.869.168.06.551-.15.677-.339a18.634,18.634,0,0,1,4.979-5.072,6.016,6.016,0,0,0,.46-.388l-.816-1.392M143.835,54.017a3.109,3.109,0,0,0-.03.349c.007.377-.271.869.478.914,1.146.069,1.163.022,1.345-.791a39.945,39.945,0,0,1,1.126-4.181c.422-1.231.49-1.186-.7-1.836-.449-.246-.652-.185-.856.279a16.17,16.17,0,0,0-1.367,5.266m-80.372.35.1-.076c-.424-1.592-.76-3.214-1.3-4.768-.561-1.63-.333-1.479-1.931-.567a.694.694,0,0,0-.2.657,16.485,16.485,0,0,1,1.482,5.159c.02.15.1.408.171.417a4.262,4.262,0,0,0,1.393.023c.152-.034.187-.549.276-.844m113.243.9c.545.029,1.1.064.949-.671-.356-1.729-.649-3.481-1.171-5.163-.5-1.613-.448-1.25-1.756-.6-.457.227-.459.461-.3.934a47,47,0,0,1,1.36,4.681c.143.632.28.953.917.817m-146.356.01c.95,0,.863-.016,1.055-.893a40.607,40.607,0,0,1,1.164-4.238c.352-1.045.43-1.02-.531-1.585a.874.874,0,0,1-.124-.069c-.49-.413-.762-.238-.992.293a17.663,17.663,0,0,0-1.4,5.616c-.069.843-.032.872.824.875M10.762,69.869l.289.279h6.533c-.088-.419-.185-.78-.234-1.147-.069-.529-.069-1.069-.164-1.592-.035-.191-.281-.512-.394-.5a6.851,6.851,0,0,0-2.451.479,27.237,27.237,0,0,0-2.955,2.272,2.035,2.035,0,0,1-.624.206M61.1,47.091c-.127-.214-.211-.38-.315-.535a16.452,16.452,0,0,0-3.7-4.043c-1.545-1.175-1.194-1.066-2.169.4-.295.443-.219.667.2,1.024a40.193,40.193,0,0,1,3.439,3.224c1.016,1.1,1.008,1.178,2.252.265a2.134,2.134,0,0,0,.3-.331M33.486,48.224c.186-.21.318-.366.458-.513C35,46.611,36,45.448,37.131,44.434c1.217-1.087,1.259-1.016.383-2.42-.241-.386-.439-.409-.786-.165A16.837,16.837,0,0,0,32.1,46.643c-.091.144-.189.446-.132.492.468.377.973.71,1.513,1.089m141.879-1.089c-.138-.238-.223-.4-.323-.557a16.358,16.358,0,0,0-3.7-4.057c-1.689-1.314-1.272-1.027-2.192.378-.3.467-.175.689.218,1.035a46.553,46.553,0,0,1,3.479,3.3c.893.966.818,1.036,1.984.32a5.865,5.865,0,0,0,.536-.416m-22.8-3.721c-.279-.487-.54-.9-.762-1.34-.23-.451-.479-.472-.889-.18a17.273,17.273,0,0,0-4.057,4c-.988,1.377-.99,1.411.556,2.1a.731.731,0,0,0,.669-.163,16.351,16.351,0,0,1,4.124-4.025,2.252,2.252,0,0,0,.359-.389M45.945,37c0-1.1-.04-1.157-1.04-1.032a17.15,17.15,0,0,0-2.817.437c-1.631.492-3.219,1.122-4.822,1.7-.5.182-.571.5-.262.925a3.466,3.466,0,0,1,.286.484c.2.387.442.471.857.252A17.858,17.858,0,0,1,45.1,37.827c.652-.053,1.015-.217.843-.822M16.227,60.533c-.1-.741-.164-1.222-.231-1.7-.224-1.594-.435-3.19-.682-4.78-.108-.7-.265-.747-.889-.4-.516.289-1.012.616-1.542.877a.782.782,0,0,0-.458,1.026c.292,1.2.549,2.409.838,3.611.04.166.15.395.285.446.827.311,1.67.579,2.678.919m136.159-19.6c.374.641.648,1.08.89,1.533.209.391.444.406.87.268a44.648,44.648,0,0,1,4.43-1.288c1.645-.352,1.646-.272,1.6-1.98-.013-.5-.2-.7-.691-.6-1.488.307-2.992.561-4.454.958a21.216,21.216,0,0,0-2.645,1.106M45.945,40.107c0-.211-.01-.422,0-.632.025-.446-.169-.646-.637-.61a17.027,17.027,0,0,0-6.688,1.879.688.688,0,0,0-.2.64A4.1,4.1,0,0,0,39.1,42.53a.779.779,0,0,0,.668.239,17.272,17.272,0,0,1,5.7-1.512c.176-.019.371-.317.461-.526a1.665,1.665,0,0,0,.016-.625m123.1.932c-.29-.172-.479-.3-.682-.405a17.07,17.07,0,0,0-6.209-1.744c-.892-.086-.9-.066-.905.846a7.876,7.876,0,0,1-.006.84c-.056.5.129.653.652.741,1.379.233,2.743.554,4.1.885.632.154,1.368.721,1.822.54.522-.209.785-1.04,1.226-1.7M54.787,41.12a1.837,1.837,0,0,0-.22-.232,4.807,4.807,0,0,0-.431-.244,16.624,16.624,0,0,0-5.288-1.63c-2.217-.3-1.756-.345-1.831,1.564-.019.5.144.65.663.74,1.377.239,2.741.565,4.1.9.629.154,1.367.71,1.818.525.527-.215.8-1.04,1.189-1.619m7.95,23.9c-.728-.43-.712-1.017-.458-1.691a1.726,1.726,0,0,0,.033-.832c-.067-.446-.041-1.063-.323-1.292a3.28,3.28,0,0,0-3.116-.942,1.091,1.091,0,0,1-1.418-.473c-.064-.117-.479-.171-.651-.089-.562.27-.583.541.012,1.047a.842.842,0,0,1,.211,1.265,3.019,3.019,0,0,0,.6,2.705,3.107,3.107,0,0,0,3.153.536.779.779,0,0,1,.695.088c.562.617.876.262,1.266-.323m41.8-47c-.3-.88-.511-1.649-.831-2.372a.847.847,0,0,1,.321-1.14c1.184-1.017,2.341-2.065,3.512-3.1.262-.232.5-.414.152-.8s-.555-.3-.877-.012q-2.055,1.851-4.142,3.668a.787.787,0,0,0-.258.991c.185.481.333.975.533,1.45s.1.7-.426.867c-1.886.588-3.754,1.226-5.63,1.843-.36.118-.682.242-.534.732s.493.418.851.3q1.732-.565,3.46-1.138c1.259-.418,2.517-.843,3.87-1.295M69.1,22.541a3.093,3.093,0,0,0-2.807,4.187c.519,1.228,1.739,1.748,2.694,2.531.073.06.436-.091.553-.233,1.013-1.237,1.995-2.5,3-3.741.278-.341.211-.563-.126-.8-.52-.371-.985-.823-1.533-1.144a16.468,16.468,0,0,0-1.783-.795M20.667,20.987h2.786c1.783,0,2.007-.289,1.571-2.032a2.723,2.723,0,0,0-.088-.266,4.464,4.464,0,0,0-8.692,1.7c.018.454.179.612.636.6,1.262-.02,2.525-.007,3.787-.006m140.009,44.02a8.838,8.838,0,1,0-8.989-8.866,8.956,8.956,0,0,0,8.989,8.866M199.19,44.844c-1.978,0-3.958.014-5.936-.008-.6-.007-.861.167-.841.8q.062,1.821,0,3.644c-.024.662.236.888.878.824a20.52,20.52,0,0,1,2.243-.166c1.287.015,2.573.138,3.859.149.737.007,1.476-.168,2.214-.169.7,0,1.408.136,2.113.18.446.029.9-.039,1.342.006.619.062.849-.139.827-.772q-.065-1.855,0-3.713c.021-.63-.219-.8-.832-.789-1.954.032-3.91.012-5.864.014M50.572,64.093a9.568,9.568,0,0,0,2.793,5.294l-1.222.68c.017.046.035.092.053.138h4.033c-.144-.165-.2-.286-.29-.322a6.039,6.039,0,0,1-2.659-2.269,10.026,10.026,0,0,1-1.459-3.029,7.281,7.281,0,0,1,.4-4.623,12.759,12.759,0,0,1,1.23-1.833,5.487,5.487,0,0,1,2.828-2.282c.924-.334,1.912-.495,2.855-.78a.733.733,0,0,0,.4-.51c.069-.475-.293-.542-.655-.471-1.134.221-2.263.467-3.463.718a9.081,9.081,0,0,0-11.841-7.014,8.77,8.77,0,0,0-5.8,10.733A8.372,8.372,0,0,0,41.587,63.6a9.311,9.311,0,0,0,8.985.492m-27.3-13.41c0-.768-.024-1.38.005-1.989.044-.927.111-1.853.194-2.777a.7.7,0,0,0-.582-.814c-1.02-.326-2.014-.75-3.052-.992a3.627,3.627,0,0,0-1.927.025,10.9,10.9,0,0,1-4.188.719c-1.524-.065-3.055-.017-4.582-.012-1.192,0-1.448.315-1.031,1.393a3.442,3.442,0,0,1,0,2.578c-.625,1.707-.655,1.3.93,1.761a2.669,2.669,0,0,0,2.139.13,6.447,6.447,0,0,1,1.764-.477c.871-.16,1.772-.189,2.628-.4,1.183-.294,2.256-.949,3.573-.794a5.491,5.491,0,0,1,1.551.458c.842.362,1.665.766,2.58,1.192m-1.2,7.86a5.01,5.01,0,0,0,0,.685c.478,3.406.971,6.81,1.437,10.217.088.645.391.83,1.039.827,5.206-.023,10.412-.012,15.618-.014.2,0,.4-.028.6-.042a.907.907,0,0,0-.471-.426,14.992,14.992,0,0,1-8.552-9.877c-.312-1.084-.3-1.058-1.458-1.095-2.707-.088-5.432.257-8.218-.275m65.4-35.3c.014-.057.029-.115.043-.172-.2-.138-.407-.281-.615-.412-4.216-2.651-8.46-5.259-12.641-7.96C67.873,10.584,61.395,6.636,54.717,3a4.227,4.227,0,0,0-2.606-.563c-2.436.313-4.865.684-7.308.932a3.147,3.147,0,0,0-2.169,1.263c-3.014,3.427-5.69,7.177-9.581,9.777a1.6,1.6,0,0,0-.761,1.611,19.177,19.177,0,0,1,.015,2.105.657.657,0,0,0,.569.75c1.378.374,2.76.748,4.116,1.191.542.177.773.039.987-.43,1.256-2.751,2.534-5.491,3.8-8.239a3.245,3.245,0,0,0,.141-.5l-.115-.084L34.07,16.961c-.77-.647-.769-.765-.08-1.311,1.336-1.058,2.653-2.141,4-3.179,2.344-1.8,4.619-3.7,7.092-5.317,2.093-1.365,4.42-2.388,6.652-3.547a2.033,2.033,0,0,1,2.711.387,6.206,6.206,0,0,0,.871.728c3.352,2.558,6.359,5.542,10.462,7.121,2.166.834,4.062,2.333,6.1,3.492A16.758,16.758,0,0,1,77.436,19.9a8.864,8.864,0,0,1,1.254,2.7c.162.557.333.718.874.714,2.412-.017,4.824-.006,7.236-.01.221,0,.441-.037.662-.057m53.427,1.1H122.835c-1.359,0-1.359,0-1.358,1.335,0,1.022,0,1.022,1.08,1.022h22.567c.382,0,.765-.015,1.146.009.432.027.714.546.428.849a1.17,1.17,0,0,1-.769.2q-11.749.015-23.5.009c-.946,0-.951,0-.952.944q0,4.844,0,9.689c0,1.2.018,1.25,1.175.891,3.168-.984,6.42-.759,9.662-.734.447,0,.59.21.551.614-.057.6-.522.443-.87.437-3.248-.061-6.494-.171-9.649.839-.607.194-.9.42-.885,1.1.043,2.667.018,5.336.019,8,0,.958,0,.963,1.012.963,5.611,0,11.224-.017,16.835.02.783,0,1.041-.284,1.267-.959,2.731-8.141,8.441-12.957,17.022-14.5a2.669,2.669,0,0,0,2.549-2.907q.005-3.4,0-6.81c0-1.012,0-1.014-1.01-1.014H140.889m14.256,45.811a3.515,3.515,0,0,0-.509-.334,5.791,5.791,0,0,1-1.453-.575,24.621,24.621,0,0,1-3.9-3.223,15.273,15.273,0,0,1-3.33-6.363c-.168-.731-.517-.848-1.172-.847-6.5.016-12.992-.005-19.488.018a5.386,5.386,0,0,1-4.407-2.069,1.226,1.226,0,0,0-.818-.409c-2.627-.03-5.254-.025-7.881,0a1.044,1.044,0,0,0-.732.3,5.694,5.694,0,0,1-4.923,2.19c-12.991-.037-25.982-.02-38.974-.016-.34,0-.68.04-1.085.064,2.06,4.823.835,8.54-3.763,11.3.383.035.564.067.746.067q8.239,0,16.478-.008c.677,0,1.355-.168,2.032-.163,1.545.011,3.091.108,4.637.119,1.089.007,2.179-.1,3.268-.1.635,0,1.272.138,1.908.142.3,0,.6-.25.9-.237,1.081.049,2.16.181,3.242.241.657.036,1.328-.072,1.977.008s1.216-.232,1.913-.057a9.878,9.878,0,0,0,2.763.05,17.191,17.191,0,0,1,3.693-.013c1,.172,2-.157,3.033-.029,1.325.163,2.69,0,4.032.063,1.269.065,2.519-.225,3.8-.049a17.9,17.9,0,0,0,2.889-.041c.728-.021,1.456-.081,2.183-.066.979.02,1.958.12,2.938.139,2.232.044,4.464-.056,6.7,0,.414.009.833-.173,1.249-.169.908.007,1.813.105,2.72.115a17.1,17.1,0,0,1,2.765-.037c1.794.321,3.567-.171,5.36.061,1.038.134,2.182-.221,3.175-.132,1.226.111,2.457-.014,3.673.155a8.221,8.221,0,0,0,1.19-.084c1.009-.014,2.019,0,3.17,0M107.612,5.335h.984c2.866,0,5.732.024,8.6-.016.729-.01.927.2.923.908-.029,5.687-.016,11.373-.017,17.061,0,1.056,0,1.058-1.1,1.058q-20.561,0-41.121-.009c-.819,0-1.583-.063-1.931.9-.1.292-.408.512-.6.778a1.647,1.647,0,0,0-.172.34,28.9,28.9,0,0,1,3.915,1.23,3.835,3.835,0,0,0,3.409.042,12.642,12.642,0,0,1,5.217-.95c11.224.05,22.448.025,33.672.025,1.02,0,1.021,0,1.021-1q0-9.758-.011-19.517c0-.618.154-.862.839-.86q13.181.031,26.363.012a12.591,12.591,0,0,1,5.084,1,11.7,11.7,0,0,1,4.934,3.939q3.282,4.554,6.515,9.141a3.041,3.041,0,0,1-2.214,4.893c-.593.074-.678.331-.674.82q.023,3.686,0,7.372a3.639,3.639,0,0,1-3.185,3.59A19.717,19.717,0,0,0,145.543,42.8a18.6,18.6,0,0,0-4.713,11.64c-.012.254.028.632.193.752a1.112,1.112,0,0,0,1.7-.84,16.723,16.723,0,0,1,1.486-6.033,17.993,17.993,0,0,1,22.108-9.634c7.518,2.545,11.634,7.921,12.377,15.705.067.694.258.9.972.9,5.683-.027,11.367-.014,17.051-.013,1.886,0,3.773-.019,5.659.01.57.008.758-.176.733-.727a23.152,23.152,0,0,1,.005-2.6c.047-.68-.234-.817-.864-.813-3.3.025-6.592.012-9.887.011-1.016,0-1.017,0-1.019-1.027q0-2.633,0-5.266c0-1.059,0-1.061,1.054-1.062q4.728,0,9.457,0c.5,0,.8-.064.6-.667a15.361,15.361,0,0,0-8.621-9.694c-7.018-3.051-14.11-5.937-21.158-8.92a3.01,3.01,0,0,1-1.178-.953q-4.365-5.907-8.668-11.859a23.617,23.617,0,0,0-6.484-6.355A28.961,28.961,0,0,0,141.329,1.15c-5.344-.15-10.7-.058-16.047-.047q-3.436.008-6.872.127a25.935,25.935,0,0,0-6.72.9,7.612,7.612,0,0,0-4.078,3.2M24.318,52.222c-.321-.108-.547-.166-.759-.258-1.135-.487-2.269-.977-3.4-1.479a3.41,3.41,0,0,0-2.362-.243q-2.443.662-4.9,1.264c-.762.187-1.539.31-2.3.484-.22.049-.6.173-.6.267a1.211,1.211,0,0,0,.255.8,7.13,7.13,0,0,0,.941.629.8.8,0,0,0,1.039.011,19.956,19.956,0,0,1,2.1-1.2,1.59,1.59,0,0,1,1.052-.077c.724.225,1.4.61,2.122.829a2.47,2.47,0,0,0,1.222-.012c.481-.114.918-.393,1.4-.534s.8-.009.786.569a7.006,7.006,0,0,0,.067,1.261c.324,2.019,1.149,3.369,3.655,3.252.529-.024.768-.139.781-.71.034-1.4.129-2.8.2-4.195a4.416,4.416,0,0,1,1.6-3.391,3.31,3.31,0,0,0,1.209-2.31c.058-.558.164-1.111.262-1.664a4.411,4.411,0,0,1,3.074-3.867,4.375,4.375,0,0,0,2.7-2.33,3.981,3.981,0,0,1,1.286-1.547,20.781,20.781,0,0,1,10.612-2.934c.48-.009.706.165.682.658-.025.514.019,1.031-.012,1.544s.111.734.7.779A17.911,17.911,0,0,1,56.6,40.835,17.531,17.531,0,0,1,64.24,52.393c.179.929.281,1.872.426,2.86,12.521-.024,25.048.037,37.575,0,12.464-.034,24.927.071,37.528-.056-.458-1.26.249-2.4.028-3.733-1.107.623-2.33-.327-3.4.315a2.015,2.015,0,0,0-.591-.2c-1.143-.024-2.287-.007-3.43-.023a31.028,31.028,0,0,1-3.216.033,35.565,35.565,0,0,0-4.136-.018c-.777,0-1.557-.061-2.329,0-.943.076-1.941-.333-2.831.278-.021.016-.108-.085-.172-.1a3.505,3.505,0,0,0-.807-.183c-1.344-.02-2.688,0-4.032-.016-1.6-.021-3.193.2-4.8.061a38.829,38.829,0,0,0-4.126-.043c-.793.016-1.584.2-2.375.194-.985-.007-1.968-.17-2.953-.193-1.5-.034-3-.019-4.5,0-.389.006-.778.17-1.165.162-1.463-.031-2.927-.12-4.39-.152-1.246-.028-2.492-.011-3.738-.007a11.7,11.7,0,0,0-2.139.055c-.687.131-1.3-.227-1.974-.092a9.869,9.869,0,0,1-2.027.179c-1.129-.012-2.256-.113-3.386-.148-.291-.009-.589.133-.88.127-1.151-.026-2.3-.091-3.451-.127-.576-.018-1.152,0-1.708,0-.094-.868.239-1.06.936-1.057,6.256.023,12.512.013,18.769.013l28.513,0c.952,0,.954-.005.954-.943,0-2.6-.008-5.2.006-7.793,0-.542-.106-.777-.74-.591-1.038.3-2.1.529-3.139.784-.359-.931-.315-1.017.5-1.216.833-.2,1.658-.442,2.5-.614a.948.948,0,0,0,.889-1.1c-.034-3.415-.016-6.833-.016-10.249,0-1.024,0-1.025-1.077-1.026q-17.48,0-34.96.015a8.048,8.048,0,0,0-2.088.366c-.87.24-1.7.6-2.569.862A3.232,3.232,0,0,1,77.48,28.9c-1.143-.459-2.329-.815-3.5-1.2-.491-.159-1-.269-1.6-.429-.061.07-.218.242-.364.422-.738.918-1.485,1.83-2.2,2.763-.3.385-.548.429-.935.114-.808-.657-1.664-1.257-2.466-1.921a3.668,3.668,0,0,1-1.4-3.3c.066-.682-.119-.833-.792-.8A147.729,147.729,0,0,0,38.253,27.8a10.4,10.4,0,0,0-5.393,2.52,2.656,2.656,0,0,1-1.414.769,16,16,0,0,1-3.263.061,3.8,3.8,0,0,0-3.164.93,8.021,8.021,0,0,1-1.607,1.279,13.388,13.388,0,0,1-2.971,1.291c-1.208.307-2.5.276-3.729.521a19.1,19.1,0,0,0-2.905.915.779.779,0,0,0-.363.663c.444,2.177.947,4.342,1.406,6.517.1.471.344.584.759.46.523-.156,1.048-.313,1.558-.507a3.847,3.847,0,0,1,2.581-.274c1.451.459,2.881.984,4.331,1.447a.61.61,0,0,1,.486.717c-.048,1.988-.067,3.977-.111,5.965-.007.36-.082.717-.136,1.148M17.1,22.194l-2.042-.257c0-.578-.016-.95,0-1.32a7.779,7.779,0,0,1,.166-1.826,6.118,6.118,0,0,1,2.355-3.335,5.015,5.015,0,0,1,3.527-.99,5.913,5.913,0,0,1,3.52,1.719A5.109,5.109,0,0,1,26.2,19.611c0,.608.04,1.218,0,1.824a2.464,2.464,0,0,1-.244.715H23.174c-.284,1.934-.576,3.927-.871,5.919-.151,1.022-.318,2.042-.46,3.065-.066.471-.1.946-.127,1.421,0,.094.1.281.141.277a1.326,1.326,0,0,0,.651-.151,25.555,25.555,0,0,0,2.211-1.83A3.969,3.969,0,0,1,27.155,30a17.616,17.616,0,0,1,2.579.194,3.845,3.845,0,0,0,2.794-.962,7.526,7.526,0,0,0,.936-1.007,7.477,7.477,0,0,1,1.122-.534c1.179-.344,2.361-.7,3.565-.942,3.016-.6,6.028-1.261,9.073-1.67,4.159-.559,8.348-.912,12.525-1.34.37-.038.584-.145.588-.535a4.13,4.13,0,0,1,.054-.558c.238-1.675,1.431-2.257,2.932-1.429.749.413,1.5.818,2.233,1.26a.807.807,0,0,0,1.028-.031,3.979,3.979,0,0,1,5.024.091,3.347,3.347,0,0,0,2.423.778c.952-.062,1.91-.009,2.866-.015.735,0,.982-.233.677-.885a11.471,11.471,0,0,0-1.579-2.547,19.718,19.718,0,0,0-2.266-2.047,1.979,1.979,0,0,0-1.62-.723c-.256.033-.542-.314-.841-.409-1.622-.515-3.251-1.006-4.877-1.5-1.791-.549-3.557-1.21-5.383-1.6a10.576,10.576,0,0,1-2.372-1.213c-.823-.385-1.662-.746-2.449-1.2-.853-.487-1.634-1.094-2.482-1.591-1.036-.609-2.109-1.157-3.271-1.789a15.2,15.2,0,0,1-.927,2.607c-.635,1.116-.78,2.495-2.332,3.125-2.213.9-4.283,2.134-6.4,3.244a1.212,1.212,0,0,0-.541.522c-.494,1.153-.914,2.338-1.433,3.48a.929.929,0,0,1-1.011.657,7.233,7.233,0,0,1-1.383-.429c-1.226-.312-2.458-.6-3.68-.931-.459-.124-.893-.333-1.431-.539,0-1.453-.009-3.077.013-4.7a1.038,1.038,0,0,1,.287-.545,2.364,2.364,0,0,1,.518-.482c3.457-2.322,5.984-5.537,8.644-8.625.615-.715,1.216-1.443,1.862-2.131a1.555,1.555,0,0,1,.821-.493c3-.414,6-.8,9.009-1.172a4.107,4.107,0,0,1,2.6.606C59.523,4.584,64.055,7.087,68.46,9.79c6.752,4.143,13.416,8.425,20.118,12.646.317.2.647.378,1.045.608a5.993,5.993,0,0,0,.309-.67c.559-1.812,1.19-3.608,1.619-5.449a17.524,17.524,0,0,1,.655-1.907c.518-1.459.2-2.918.155-4.376-.029-1.049-.137-2.1-.213-3.145-.07-.983-.145-1.965-.217-2.947-.028-.387-.074-.756.525-.77.551-.012.532.325.554.69q.159,2.591.333,5.181a.792.792,0,0,0,.222.5,5.457,5.457,0,0,0,.285-.63c.225-.714.43-1.434.645-2.152.111-.371.31-.538.741-.407s.39.4.3.715c-.39,1.3-.712,2.625-1.188,3.893a9.253,9.253,0,0,0-.528,4.605c.132.972.067.977-.94,1.049-.1.008-.264.092-.277.162-.209,1.187-.9,2.246-1.005,3.457l.263.226a2.194,2.194,0,0,1,.273-.566q6.694-7.358,13.406-14.7c.8-.871,1.608-1.727,2.408-2.595A8.417,8.417,0,0,1,112.607.79,48.95,48.95,0,0,1,122.23.048c6.041-.05,12.085-.077,18.126,0A32.075,32.075,0,0,1,155.7,3.726a23.455,23.455,0,0,1,7.769,7.028c2.9,4.033,5.845,8.033,8.8,12.026a3,3,0,0,0,1.2.924c6.876,2.9,13.792,5.72,20.642,8.684a16.389,16.389,0,0,1,9.453,10.744c.156.51.377.692.885.673.62-.023,1.242.008,1.863-.007.44-.009.651.138.648.608-.016,2.059-.011,4.119,0,6.179,0,.416-.167.594-.6.579-.524-.019-1.05.008-1.576,0-.4-.01-.593.105-.607.555-.051,1.541-.069,1.54,1.5,1.539,1.471,0,1.355-.118,1.358,1.319,0,1.124-.044,2.249.016,3.369.038.734-.238.9-.943.9q-14.33-.03-28.658-.014c-1.717,0-1.675.012-2.188,1.64-.294.933-.748,1.817-1.129,2.723a12,12,0,0,1-2.263,3.115c-.322.369-.58.794-.921,1.144-.158.162-.491.156-.663.312a12.381,12.381,0,0,1-3.673,2.13.507.507,0,0,0-.163.132,1,1,0,0,0-.089.221c1.512,0,2.985.025,4.458-.009.971-.023,1.941-.183,2.912-.187.764,0,1.528.191,2.294.2q2.993.047,5.984,0c.815-.012,1.629-.176,2.443-.184.72-.006,1.441.156,2.162.16,4.934.022,9.869.021,14.8.035.355,0,.864-.112.791.493a.832.832,0,0,1-.463.533,2.122,2.122,0,0,1-.778.029H1.144a2.042,2.042,0,0,1-.778-.037A.747.747,0,0,1,0,70.735c-.009-.147.218-.37.392-.447a1.684,1.684,0,0,1,.636-.029c2.436,0,4.873.018,7.308-.02a2.1,2.1,0,0,0,1.141-.419c1.134-.856,2.267-1.722,3.315-2.674a4.546,4.546,0,0,1,3.336-1.316c.7.026.849-.278.74-.9-.153-.876-.266-1.759-.353-2.643-.049-.49-.349-.677-.764-.805-.887-.274-1.766-.573-2.658-.827a.962.962,0,0,1-.785-.79c-.3-1.4-.664-2.777-.942-4.177a1.439,1.439,0,0,0-.755-1.107c-.229-.122-.431-.3-.666-.409A1.594,1.594,0,0,1,8.862,52.3c.1-.52-.178-.763-.7-.841-.47-.07-.928-.213-1.391-.325-.4-.1-.557-.319-.4-.722.137-.348.229-.715.38-1.057a3.879,3.879,0,0,0,.207-3.227c-.48-1.188.142-2.066,1.427-2.3a.733.733,0,0,0,.682-.748,14.84,14.84,0,0,0,.13-5.154c-.341-1.519.723-2.537,2.37-2.495,1.372.035,2.478-.716,3.676-1.19.108-.042.177-.263.2-.41.237-1.585.474-3.169.682-4.758.057-.428-.009-.87.029-1.3.018-.2.195-.389.226-.594.152-.986.328-1.971.382-2.964a1.884,1.884,0,0,1,.092-.717,5.838,5.838,0,0,0,.242-1.3" transform="translate(0 0)"/>
      <path id="Path_13221" data-name="Path 13221" d="M23.093,57.011a2.776,2.776,0,0,0,.127-4.082,1.478,1.478,0,0,1,.015-.91,3.581,3.581,0,0,1,1.638-1.644c.1-.05.077-.573-.057-.76a14.294,14.294,0,0,0-1.409-1.67c-.854-.868-.564-1.912-.509-2.914a.784.784,0,0,1,.612-.162,3.776,3.776,0,0,1,.786.583,1.277,1.277,0,0,0,.008,1.871,22.908,22.908,0,0,1,1.613,1.937,1.506,1.506,0,0,1-.562,2.248,2.9,2.9,0,0,1-.465.31c-.636.234-.623.654-.323,1.113a4.016,4.016,0,0,1,.4,3.3c-.287,1.217-.728,1.42-1.869.78" transform="translate(-12.644 -24.867)"/>
      <path id="Path_13222" data-name="Path 13222" d="M3.96,78.554A2.656,2.656,0,0,1,5.131,76.2c1.02-.671,1.2-1.157.632-2.238a3.285,3.285,0,0,1-.016-3.339c.265-.489.386-1.052.612-1.564.129-.291.2-.721.738-.509.437.17.59.384.367.846-.337.7-.594,1.437-.923,2.141a1.592,1.592,0,0,0,.031,1.542,6.8,6.8,0,0,1,.381.905,2.347,2.347,0,0,1-.961,2.946c-.986.683-1.1.99-.725,2.126.271.822.594,1.628.838,2.457a.647.647,0,0,1-.249.583c-.166.079-.6,0-.646-.115-.479-1.216-.9-2.452-1.251-3.424" transform="translate(-2.195 -37.972)"/>
      <path id="Path_13223" data-name="Path 13223" d="M65.558,47.07c-.106.616-.221,1.367-.37,2.111a3.519,3.519,0,0,1-.373,1.216c-.112.174-.558.194-.852.189-.4-.008-.423-.283-.321-.6.216-.674.453-1.345.609-2.033.048-.21-.074-.62-.23-.685a2.612,2.612,0,0,1-1.456-2.057c-.092-.418.314-.994.605-1.429.5-.745.412-.979-.146-1.683a9.04,9.04,0,0,1-1.06-2.125c-.033-.078.264-.363.455-.438a.57.57,0,0,1,.524.131,22.746,22.746,0,0,1,1.7,3.218,1.81,1.81,0,0,1-.512,1.54c-.479.458-.515.892-.2,1.269a12.388,12.388,0,0,0,1.621,1.377" transform="translate(-34.352 -21.908)"/>
      <path id="Path_13224" data-name="Path 13224" d="M34.427,69.585a2.846,2.846,0,0,0,1.687,2.75,2.194,2.194,0,0,1,1.372,1.508c.105.534.433.7.848.531.16-.064.266-.553.2-.8a3.236,3.236,0,0,0-1.812-2.128c-1.355-.676-1.571-1.721-.648-2.923a15.029,15.029,0,0,0,1.02-1.345.684.684,0,0,0-.136-.666.706.706,0,0,0-.684.042,13.185,13.185,0,0,0-1.425,1.833,4.847,4.847,0,0,0-.423,1.2m41.629-.1c.333.3.443.928,1.021.493,2.1-1.588,4.519-1.657,6.969-1.3,2.618.385,5.2.97,7.821,1.356,1.6.235,3.229.259,4.844.377.373.027.594-.1.571-.516-.019-.36-.136-.565-.556-.547-3.235.134-6.341-.673-9.479-1.252a23.808,23.808,0,0,0-6.4-.589,7.524,7.524,0,0,0-4.794,1.975M117.228,65.9c-1.191-.065-1.341.072-1.553.892-.24.928-.558,1.836-.787,2.767a3.942,3.942,0,0,1-3.428,3.043q-2.978.6-5.925,1.341a7.368,7.368,0,0,0-3.821,1.937c-.135.147-.23.549-.147.625a.648.648,0,0,0,.93.115,8.726,8.726,0,0,1,2.4-1.333c2.193-.631,4.423-1.152,6.661-1.612,2.294-.471,3.866-1.616,4.41-3.935.161-.683.421-1.342.583-2.024.145-.61.441-.83,1.106-.733,1.7.25,3.405.472,5.115.618a3.758,3.758,0,0,0,1.786-.275c1.342-.6,2.624-1.334,3.938-2,.356-.18.525-.371.3-.766s-.448-.376-.815-.179c-1.15.618-2.339,1.166-3.475,1.807a3.27,3.27,0,0,1-2.2.332c-1.8-.254-3.6-.445-5.079-.622M36.751,82.762c.053-.43.128-.789.135-1.148.044-1.988.063-3.977.111-5.965a.61.61,0,0,0-.485-.718c-1.45-.463-2.88-.988-4.332-1.447a3.856,3.856,0,0,0-2.582.274c-.508.195-1.033.352-1.557.508-.415.123-.66.01-.759-.461-.459-2.174-.962-4.34-1.406-6.518a.778.778,0,0,1,.364-.662,19.194,19.194,0,0,1,2.9-.915c1.228-.245,2.521-.214,3.728-.521A13.372,13.372,0,0,0,35.844,63.9a8.051,8.051,0,0,0,1.607-1.28,3.8,3.8,0,0,1,3.164-.93,15.969,15.969,0,0,0,3.263-.061,2.663,2.663,0,0,0,1.415-.77,10.4,10.4,0,0,1,5.392-2.52A147.744,147.744,0,0,1,76.64,55.09c.673-.03.858.121.792.8a3.669,3.669,0,0,0,1.4,3.3c.8.664,1.657,1.264,2.465,1.921.388.315.64.271.936-.114.718-.933,1.466-1.844,2.2-2.762.146-.18.3-.352.363-.422.605.159,1.113.269,1.6.428,1.174.381,2.36.737,3.5,1.2a3.236,3.236,0,0,0,2.231.117c.864-.263,1.7-.622,2.568-.864a8.08,8.08,0,0,1,2.089-.365q17.48-.033,34.959-.015c1.077,0,1.078,0,1.078,1.026,0,3.417-.018,6.834.016,10.25a.948.948,0,0,1-.89,1.1c-.839.172-1.664.411-2.5.614-.817.2-.862.284-.5,1.216,1.038-.255,2.1-.479,3.139-.784.634-.186.742.049.74.59-.014,2.6,0,5.2-.007,7.793,0,.937,0,.942-.955.942q-14.255,0-28.511,0c-6.257,0-12.513.01-18.77-.013-.7,0-1.029.188-.936,1.057.555,0,1.132-.015,1.708,0,1.151.035,2.3.1,3.451.127.292.007.588-.135.88-.127,1.129.036,2.257.137,3.386.149a9.879,9.879,0,0,0,2.028-.18c.676-.135,1.288.224,1.974.092a11.748,11.748,0,0,1,2.14-.054c1.245,0,2.492-.021,3.738.006,1.464.033,2.927.122,4.39.152.387.008.776-.156,1.165-.162,1.5-.021,3-.037,4.5,0,.985.023,1.968.187,2.954.193.79,0,1.581-.179,2.375-.194a38.72,38.72,0,0,1,4.126.043c1.612.141,3.2-.083,4.805-.062,1.343.018,2.687,0,4.032.016a3.493,3.493,0,0,1,.807.184c.064.016.151.116.172.1.89-.612,1.889-.2,2.831-.279.771-.062,1.552,0,2.33,0a35.37,35.37,0,0,1,4.136.018,31.144,31.144,0,0,0,3.215-.034c1.143.017,2.286,0,3.429.024a2.027,2.027,0,0,1,.591.2c1.074-.642,2.3.309,3.4-.315.221,1.331-.485,2.473-.028,3.733-12.6.128-25.064.022-37.527.057-12.527.035-25.054-.026-37.575,0-.145-.989-.248-1.932-.427-2.86a17.525,17.525,0,0,0-7.639-11.558,17.9,17.9,0,0,0-8.885-3.016c-.586-.045-.729-.268-.7-.779s-.012-1.031.012-1.544c.023-.493-.2-.667-.683-.657A20.774,20.774,0,0,0,48.17,68.312a3.961,3.961,0,0,0-1.286,1.546,4.373,4.373,0,0,1-2.7,2.331,4.41,4.41,0,0,0-3.074,3.867c-.1.553-.2,1.106-.262,1.664a3.306,3.306,0,0,1-1.208,2.31,4.416,4.416,0,0,0-1.6,3.39c-.074,1.4-.169,2.8-.2,4.2-.013.569-.252.685-.781.709-2.506.117-3.332-1.233-3.656-3.252a7.131,7.131,0,0,1-.068-1.26c.012-.579-.323-.706-.786-.569s-.914.42-1.395.533a2.47,2.47,0,0,1-1.222.013c-.725-.219-1.4-.605-2.122-.83a1.591,1.591,0,0,0-1.053.077,20.222,20.222,0,0,0-2.1,1.2.806.806,0,0,1-1.04-.01,7.22,7.22,0,0,1-.941-.63,1.212,1.212,0,0,1-.254-.8c0-.094.378-.217.6-.268.766-.173,1.543-.3,2.3-.484q2.46-.606,4.9-1.264a3.415,3.415,0,0,1,2.363.243c1.129.5,2.264.991,3.4,1.48.212.09.438.15.759.257" transform="translate(-12.432 -30.54)" fill="#fff"/>
      <path id="Path_13225" data-name="Path 13225" d="M198.652,6.658a7.609,7.609,0,0,1,4.078-3.2,25.913,25.913,0,0,1,6.719-.9q3.436-.122,6.873-.127c5.349-.012,10.7-.1,16.046.047a28.959,28.959,0,0,1,15.023,4.208,23.62,23.62,0,0,1,6.484,6.355Q258.161,19,262.542,24.9a3.019,3.019,0,0,0,1.177.953c7.048,2.984,14.14,5.869,21.159,8.92a15.361,15.361,0,0,1,8.621,9.694c.2.6-.1.668-.6.667-3.153-.009-6.3,0-9.457,0-1.05,0-1.053,0-1.054,1.062q0,2.633,0,5.266c0,1.024,0,1.027,1.018,1.027,3.3,0,6.591.014,9.887-.011.63,0,.911.132.864.813a23.143,23.143,0,0,0-.005,2.6c.024.551-.163.736-.734.727-1.886-.029-3.773-.009-5.659-.009-5.684,0-11.368-.014-17.051.013-.715,0-.905-.2-.972-.9-.743-7.784-4.859-13.161-12.378-15.706a17.994,17.994,0,0,0-22.107,9.635,16.732,16.732,0,0,0-1.486,6.033,1.112,1.112,0,0,1-1.7.841c-.166-.12-.205-.5-.193-.752a18.6,18.6,0,0,1,4.713-11.64A19.712,19.712,0,0,1,249.1,37.411a3.639,3.639,0,0,0,3.185-3.59q.02-3.686,0-7.372c0-.49.082-.746.675-.82a3.042,3.042,0,0,0,2.214-4.893q-3.224-4.592-6.515-9.141a11.7,11.7,0,0,0-4.933-3.939,12.594,12.594,0,0,0-5.084-1q-13.182.011-26.364-.012c-.685,0-.841.242-.839.86q.026,9.759.011,19.518c0,1,0,1-1.021,1-11.224,0-22.448.025-33.672-.025a12.64,12.64,0,0,0-5.217.95,3.829,3.829,0,0,1-3.409-.043,29.073,29.073,0,0,0-3.916-1.23,1.66,1.66,0,0,1,.172-.341c.193-.266.5-.486.6-.778.348-.965,1.112-.9,1.93-.9q20.561.019,41.121.008c1.1,0,1.1,0,1.1-1.058,0-5.687-.012-11.374.016-17.06,0-.711-.193-.917-.922-.907-2.865.04-5.731.016-8.6.016Z" transform="translate(-91.039 -1.324)" fill="#fff"/>
      <path id="Path_13226" data-name="Path 13226" d="M280.218,65.024q-1.678,0-3.355,0c-.386,0-.776-.044-.767.545.009.553.381.5.735.5q3.355,0,6.71,0c.36,0,.741.037.746-.5.006-.577-.4-.54-.787-.541-1.094,0-2.188,0-3.283,0" transform="translate(-153.07 -36.05)" fill="#fff"/>
      <path id="Path_13227" data-name="Path 13227" d="M127.629,26.243c-.221.02-.441.056-.662.057-2.411,0-4.823-.007-7.235.01-.542,0-.713-.156-.875-.714a8.858,8.858,0,0,0-1.254-2.7,16.758,16.758,0,0,0-5.549-4.562c-2.041-1.159-3.937-2.658-6.1-3.493-4.1-1.58-7.11-4.563-10.463-7.121a6.107,6.107,0,0,1-.87-.728A2.034,2.034,0,0,0,91.907,6.6c-2.232,1.159-4.559,2.182-6.652,3.547-2.473,1.613-4.748,3.518-7.092,5.318-1.352,1.038-2.669,2.121-4,3.179-.689.546-.689.664.08,1.311l7.734-6.147.115.084a3.32,3.32,0,0,1-.141.5c-1.265,2.746-2.543,5.487-3.8,8.237-.214.469-.444.607-.987.43-1.356-.443-2.737-.816-4.115-1.191a.659.659,0,0,1-.569-.751,18.84,18.84,0,0,0-.015-2.1,1.6,1.6,0,0,1,.76-1.61c3.892-2.6,6.568-6.35,9.581-9.778a3.146,3.146,0,0,1,2.169-1.263c2.443-.248,4.873-.618,7.308-.932A4.219,4.219,0,0,1,94.886,6c6.677,3.631,13.155,7.58,19.53,11.7,4.182,2.7,8.426,5.309,12.641,7.96.209.132.41.275.615.413l-.044.172" transform="translate(-40.168 -2.997)" fill="#fff"/>
      <path id="Path_13228" data-name="Path 13228" d="M93.658,122.836c.632-.183,1.777-.469,2.883-.862a1.138,1.138,0,0,0,.593-.821,8.975,8.975,0,0,1,3.427-6.395,1.143,1.143,0,0,0,.32-.887,7.926,7.926,0,0,0-14.058-3.6,7.183,7.183,0,0,0-.848,8.171c1.439,2.853,3.9,4.243,7.682,4.4m3.52.111a9.31,9.31,0,0,1-8.985-.493,8.372,8.372,0,0,1-3.812-5.078,8.77,8.77,0,0,1,5.8-10.733,9.081,9.081,0,0,1,11.841,7.013c1.2-.25,2.329-.5,3.463-.717.362-.07.723,0,.655.471a.732.732,0,0,1-.4.51c-.945.285-1.932.446-2.856.78a5.49,5.49,0,0,0-2.829,2.282,12.669,12.669,0,0,0-1.23,1.834,7.278,7.278,0,0,0-.4,4.622,9.985,9.985,0,0,0,1.46,3.029,6.031,6.031,0,0,0,2.658,2.27c.091.037.146.157.29.322H98.8l-.053-.138,1.222-.68a9.565,9.565,0,0,1-2.793-5.293" transform="translate(-46.605 -58.853)" fill="#fff"/>
      <path id="Path_13229" data-name="Path 13229" d="M348.908,122.831c6.64-.014,10.479-6.48,7.4-11.626a5.562,5.562,0,0,0-3.73-3.072c-.605-.111-1.143-.568-1.749-.69a2.817,2.817,0,0,0-2.128.065c-.488.27-1.244.031-1.818.209a7.641,7.641,0,0,0-4.2,3.3c-.106.164-.026.438-.121.616-.151.28-.465.5-.552.784a10.481,10.481,0,0,0-.479,2.181,6.743,6.743,0,0,0,.179,2,7.784,7.784,0,0,0,.733,2.057,7.589,7.589,0,0,0,6.465,4.177m.5,1.072a8.837,8.837,0,1,1,9.074-8.714,8.947,8.947,0,0,1-9.074,8.714" transform="translate(-188.73 -58.896)" fill="#fff"/>
      <path id="Path_13230" data-name="Path 13230" d="M40.873,40.414c-1.262,0-2.525-.013-3.787.007-.457.007-.618-.152-.636-.605a4.464,4.464,0,0,1,8.692-1.7c.031.088.066.176.088.266.436,1.744.212,2.032-1.571,2.032H40.873" transform="translate(-20.206 -19.428)" fill="#fff"/>
      <path id="Path_13231" data-name="Path 13231" d="M151.3,50.586a16.489,16.489,0,0,1,1.783.794c.549.321,1.014.774,1.533,1.145.338.241.4.463.127.8-1.007,1.242-1.988,2.5-3,3.74-.116.142-.48.293-.553.234-.954-.783-2.175-1.3-2.693-2.531a3.093,3.093,0,0,1,2.806-4.187" transform="translate(-82.2 -28.045)" fill="#fff"/>
      <path id="Path_13232" data-name="Path 13232" d="M224.37,30.92c-1.352.453-2.61.876-3.87,1.3q-1.727.573-3.458,1.138c-.36.118-.7.2-.852-.3s.174-.613.534-.732c1.876-.618,3.744-1.255,5.63-1.843.528-.165.623-.4.426-.867s-.348-.969-.533-1.449a.788.788,0,0,1,.257-.991q2.092-1.811,4.143-3.668c.321-.289.546-.355.877.012s.11.566-.152.8c-1.17,1.033-2.326,2.08-3.511,3.1a.846.846,0,0,0-.321,1.139c.32.724.53,1.493.831,2.372" transform="translate(-119.837 -12.896)" fill="#fff"/>
      <path id="Path_13233" data-name="Path 13233" d="M131.375,137.069a1.582,1.582,0,1,0-1.593,1.555,1.574,1.574,0,0,0,1.593-1.555m1.507,2.187c-.389.584-.7.939-1.267.322a.777.777,0,0,0-.695-.087,3.107,3.107,0,0,1-3.153-.537,3.02,3.02,0,0,1-.595-2.706.841.841,0,0,0-.212-1.264c-.6-.506-.573-.776-.011-1.048.17-.082.587-.027.65.09a1.092,1.092,0,0,0,1.419.473,3.278,3.278,0,0,1,3.116.941c.281.229.256.846.322,1.292a1.732,1.732,0,0,1-.033.832c-.254.673-.27,1.261.459,1.691" transform="translate(-70.144 -74.234)" fill="#fff"/>
      <path id="Path_13234" data-name="Path 13234" d="M31.634,127.024c-1.008-.34-1.851-.608-2.678-.92-.136-.051-.246-.28-.285-.446-.289-1.2-.546-2.411-.837-3.611a.781.781,0,0,1,.456-1.025c.53-.261,1.026-.588,1.542-.877.625-.352.781-.3.889.4.248,1.59.458,3.186.682,4.78.067.481.131.962.231,1.7" transform="translate(-15.407 -66.491)" fill="#fff"/>
      <path id="Path_13235" data-name="Path 13235" d="M24.153,153.118a2.037,2.037,0,0,0,.623-.206,27.222,27.222,0,0,1,2.955-2.271,6.851,6.851,0,0,1,2.452-.48c.113-.015.358.306.393.5.1.523.1,1.063.165,1.592.048.368.146.729.233,1.148H24.442l-.289-.28" transform="translate(-13.391 -83.25)" fill="#fff"/>
      <path id="Path_13236" data-name="Path 13236" d="M141.035,50.708a19.542,19.542,0,0,1-2.887.138c-.691-.061-.312-.721-.244-1.088a.614.614,0,0,1,.955-.491c.753.385,1.482.815,2.221,1.226-.016.071-.03.143-.045.215" transform="translate(-76.364 -27.259)" fill="#fff"/>
      <path id="Path_13237" data-name="Path 13237" d="M215.659,77.306c1.479.178,3.284.368,5.079.622a3.281,3.281,0,0,0,2.2-.332c1.136-.641,2.325-1.19,3.475-1.807.366-.2.6-.2.814.179s.053.586-.3.766c-1.314.664-2.6,1.4-3.939,2a3.76,3.76,0,0,1-1.785.275c-1.711-.146-3.417-.37-5.116-.619-.665-.1-.961.123-1.105.733-.163.682-.423,1.341-.583,2.024-.545,2.318-2.117,3.463-4.41,3.935-2.238.46-4.468.981-6.661,1.612a8.719,8.719,0,0,0-2.4,1.333.648.648,0,0,1-.93-.115c-.083-.076.012-.478.147-.625a7.363,7.363,0,0,1,3.821-1.937q2.944-.746,5.925-1.342a3.944,3.944,0,0,0,3.428-3.043c.229-.93.548-1.839.787-2.767.212-.82.363-.956,1.553-.892" transform="translate(-110.863 -41.945)"/>
      <path id="Path_13238" data-name="Path 13238" d="M142.786,84.886a7.531,7.531,0,0,1,4.794-1.975,23.834,23.834,0,0,1,6.4.589c3.138.58,6.244,1.387,9.479,1.252.419-.018.536.188.555.547.023.415-.2.543-.57.516-1.616-.118-3.247-.142-4.844-.377-2.617-.386-5.2-.971-7.821-1.356-2.45-.36-4.865-.291-6.969,1.3-.578.436-.687-.191-1.021-.493" transform="translate(-79.162 -45.939)"/>
      <path id="Path_13239" data-name="Path 13239" d="M49.362,83.715a4.868,4.868,0,0,1,.424-1.2,13.154,13.154,0,0,1,1.425-1.833.7.7,0,0,1,.684-.042.682.682,0,0,1,.135.665,14.943,14.943,0,0,1-1.02,1.346c-.922,1.2-.706,2.246.648,2.923A3.232,3.232,0,0,1,53.47,87.7c.064.247-.042.735-.2.8-.415.168-.742,0-.848-.531a2.191,2.191,0,0,0-1.372-1.508,2.847,2.847,0,0,1-1.686-2.751" transform="translate(-27.367 -44.671)"/>
      <path id="Path_13240" data-name="Path 13240" d="M280.218,65.024c1.095,0,2.189,0,3.283,0,.386,0,.793-.036.787.542-.005.539-.387.5-.746.5q-3.355,0-6.71,0c-.354,0-.726.049-.735-.5-.009-.589.381-.545.767-.545q1.677,0,3.355,0" transform="translate(-153.07 -36.049)"/>
      <path id="Path_13241" data-name="Path 13241" d="M92.024,113.339a.749.749,0,0,0-.855-.752.7.7,0,0,0-.71.8.706.706,0,0,0,.767.745.746.746,0,0,0,.8-.79m.015,5.667c-.2-.139-.478-.47-.8-.516-.489-.07-.8.279-.786.779a.71.71,0,0,0,.763.757c.512,0,.767-.308.818-1.021m6.01.007c-.2-.139-.467-.47-.784-.523a.652.652,0,0,0-.787.76,1.169,1.169,0,0,0,.745.748c.487.111.767-.262.827-.985m-1.041-4.85c.724-.069,1.018-.321,1.014-.829a.7.7,0,0,0-.767-.747c-.506-.008-.855.319-.781.79.048.312.387.582.534.786m-2.085,10.015c-3.785-.153-6.243-1.544-7.682-4.4a7.182,7.182,0,0,1,.847-8.172,7.926,7.926,0,0,1,14.059,3.6,1.144,1.144,0,0,1-.321.887A8.972,8.972,0,0,0,98.4,122.5a1.14,1.14,0,0,1-.592.821c-1.106.393-2.251.68-2.883.862" transform="translate(-47.869 -60.196)"/>
      <path id="Path_13242" data-name="Path 13242" d="M348.425,114.775a1.966,1.966,0,0,1-.11.6,2.663,2.663,0,0,0,.405,2.939,1.21,1.21,0,0,0,.807.589c.443.1.815.286.74.847-.051.385.139.545.538.545s.579-.162.535-.546c-.049-.438.146-.656.566-.835a2.61,2.61,0,0,0,1.56-2.539c-.025-.943-.686-1.547-1.16-2.255-1.038.085-1-.584-.946-1.282.032-.408-.237-.51-.6-.5-.377.007-.547.139-.536.553.01.346,0,.838-.21,1.015a8.8,8.8,0,0,1-1.591.871m1.848,9.338a7.586,7.586,0,0,1-6.464-4.177,7.781,7.781,0,0,1-.733-2.057,6.728,6.728,0,0,1-.179-2,10.532,10.532,0,0,1,.479-2.181c.088-.289.4-.5.553-.784.095-.178.015-.452.121-.616a7.642,7.642,0,0,1,4.2-3.3c.575-.179,1.331.061,1.819-.209a2.817,2.817,0,0,1,2.128-.065c.606.121,1.144.579,1.749.69a5.564,5.564,0,0,1,3.731,3.072c3.075,5.147-.763,11.613-7.4,11.626" transform="translate(-190.096 -60.178)"/>
      <path id="Path_13243" data-name="Path 13243" d="M133.479,139.051a1.582,1.582,0,1,1-1.569-1.579,1.577,1.577,0,0,1,1.569,1.579" transform="translate(-72.248 -76.216)"/>
      <path id="Path_13244" data-name="Path 13244" d="M109.6,119.154c-.147-.2-.486-.473-.534-.786-.074-.471.275-.8.781-.79a.7.7,0,0,1,.767.747c0,.507-.29.759-1.014.829" transform="translate(-60.461 -65.186)" fill="#fff"/>
      <path id="Path_13245" data-name="Path 13245" d="M110.643,131.336c-.06.722-.339,1.095-.827.985a1.172,1.172,0,0,1-.744-.749.651.651,0,0,1,.786-.759c.317.052.587.383.784.523" transform="translate(-60.464 -72.518)" fill="#fff"/>
      <path id="Path_13246" data-name="Path 13246" d="M97.157,131.33c-.051.713-.306,1.023-.818,1.021a.709.709,0,0,1-.763-.757c-.011-.5.3-.849.786-.78.317.046.593.376.8.515" transform="translate(-52.988 -72.52)" fill="#fff"/>
      <path id="Path_13247" data-name="Path 13247" d="M97.142,118.325a.745.745,0,0,1-.8.79.705.705,0,0,1-.767-.746.7.7,0,0,1,.71-.8.749.749,0,0,1,.855.752" transform="translate(-52.988 -65.182)" fill="#fff"/>
      <path id="Path_13248" data-name="Path 13248" d="M355.564,121.237a1.6,1.6,0,0,0,3.2,0,1.652,1.652,0,0,0-1.6-1.582,1.627,1.627,0,0,0-1.6,1.577m-.739-1.745a8.839,8.839,0,0,0,1.591-.871c.214-.177.221-.669.21-1.016-.012-.414.159-.545.536-.553.361-.007.629.094.6.5-.053.7-.092,1.366.946,1.281.473.708,1.134,1.312,1.159,2.255a2.608,2.608,0,0,1-1.561,2.539c-.42.178-.614.4-.565.835.043.385-.135.548-.536.547s-.589-.16-.538-.545c.075-.561-.3-.745-.74-.848a1.2,1.2,0,0,1-.807-.588,2.662,2.662,0,0,1-.405-2.939,1.972,1.972,0,0,0,.11-.6" transform="translate(-196.496 -64.895)" fill="#fff"/>
      <path id="Path_13249" data-name="Path 13249" d="M356.982,124.482a1.626,1.626,0,0,1,1.6-1.577,1.65,1.65,0,0,1,1.6,1.581,1.6,1.6,0,0,1-3.2,0" transform="translate(-197.914 -68.14)"/>
    </g>
  </g>
</svg>
