<svg id="Group_3002" data-name="Group 3002" xmlns="http://www.w3.org/2000/svg" xmlns:xlink="http://www.w3.org/1999/xlink" width="153.698" height="212.712" viewBox="0 0 153.698 212.712">
  <defs>
    <clipPath id="clip-path">
      <rect id="Rectangle_1330" data-name="Rectangle 1330" width="153.338" height="212.528" fill="none"/>
    </clipPath>
    <clipPath id="clip-path-2">
      <rect id="Rectangle_1331" data-name="Rectangle 1331" width="153.698" height="212.712" fill="none"/>
    </clipPath>
  </defs>
  <g id="Group_2995" data-name="Group 2995" transform="translate(0.359 0)">
    <g id="Group_2994" data-name="Group 2994" clip-path="url(#clip-path)">
      <path id="Path_13250" data-name="Path 13250" d="M77.319,183.767c-5.8,0-11.615.214-17.4-.067a30.56,30.56,0,0,1-13.279-4.108,44.993,44.993,0,0,1-11.841-9.182,108.144,108.144,0,0,1-7.474-9.537,67.374,67.374,0,0,1-8.183-16.792,80.934,80.934,0,0,1-2.676-9.332,113.8,113.8,0,0,1-2.341-12.619,110.949,110.949,0,0,1-.572-13.814,122.568,122.568,0,0,1,1.025-13.78c.48-3.664,1.459-7.269,2.3-10.88A82.686,82.686,0,0,1,22.948,66.9,68.964,68.964,0,0,1,33.367,51.256,47.406,47.406,0,0,1,48.8,39.515a28.594,28.594,0,0,1,9.862-2.945c2.063-.177,4.129-.41,6.2-.42q13.731-.061,27.462.013a33.519,33.519,0,0,1,15.433,4.292A46.487,46.487,0,0,1,117.872,47.7,62.561,62.561,0,0,1,132.48,68.614c1.909,4.343,3.456,8.852,5.012,13.338a41.6,41.6,0,0,1,1.155,5.441c.36,1.784.722,3.567,1.062,5.354a90.071,90.071,0,0,1,1.331,23.4,126.548,126.548,0,0,1-1.988,15.249,84.859,84.859,0,0,1-6.376,19.865,83.151,83.151,0,0,1-8.57,14.329,53.49,53.49,0,0,1-10.122,10.13,39.688,39.688,0,0,1-13.04,6.853,28.315,28.315,0,0,1-7.2,1.179c-5.47.17-10.95.053-16.426.053ZM42.371,110.031c.573,5.556,1.091,10.953,1.7,16.342a73.889,73.889,0,0,0,3.761,15.962,79.017,79.017,0,0,0,10.022,19.82,50.577,50.577,0,0,0,15.741,14.784,33.455,33.455,0,0,0,16.059,4.713,34.33,34.33,0,0,0,20.793-6.311,54.35,54.35,0,0,0,15.97-17.4,82.463,82.463,0,0,0,7.975-17.689A85.535,85.535,0,0,0,138.422,119a195.031,195.031,0,0,0-.314-19.543,62.425,62.425,0,0,0-1.469-10.208,128.542,128.542,0,0,0-3.388-12.728,69.424,69.424,0,0,0-7.025-14.7,56.211,56.211,0,0,0-11.3-13.588c-5.282-4.5-11.133-7.82-18.02-9.106-9.108-1.7-17.462.3-25.171,5.246A53.051,53.051,0,0,0,55.615,61.3a80.107,80.107,0,0,0-8.873,19.812,74.774,74.774,0,0,0-2.461,11.018c-.835,5.974-1.3,12-1.911,17.906M29.3,94.537H18.4c-1.514,0-1.288-.027-1.527,2.354-.115,1.137.784.925,1.44.925q10.343.014,20.687,0c1.894,0,1.894,0,2.325-1.811.288-1.207.1-1.464-1.137-1.468-3.632-.011-7.262,0-10.894,0m1.514-7.952q5.207,0,10.411,0c1.69,0,1.811-.1,2.139-1.786.253-1.3.1-1.5-1.229-1.5q-10.288-.006-20.576,0c-2.048,0-1.958.028-2.589,2.028-.386,1.227.114,1.283,1.067,1.275,3.592-.029,7.186-.013,10.778-.013M40.4,111.27H38.819q-10.166,0-20.334,0c-2.667,0-2.669,0-2.42,2.712.008.069.081.131.166.264H40.4Zm.353,8.583c-.1-.806-.212-1.367-.221-1.931-.012-.7-.252-1.022-1.011-1.021-7.394.02-14.789.008-22.183.032-.364,0-1.032.267-1.035.42a6.1,6.1,0,0,0,.3,2.24c.1.257.826.38,1.267.382q10.785.034,21.571.011a12.978,12.978,0,0,0,1.312-.133m-13.22,36.358c.985,2.66,1.355,2.93,3.813,2.93H51.172a3.311,3.311,0,0,0,.97-.037c.207-.067.493-.354.488-.537a3.135,3.135,0,0,0-2.615-2.431q-10.585-.006-21.171,0c-.394,0-.787.044-1.311.076m3.739,5.517c.6,2.112,1.806,3.092,3.595,3.092H56.541c-.995-2.576-1.83-3.174-4.246-3.174q-9.675,0-19.351,0c-.517,0-1.036.049-1.672.081M35.283,52.963h1.669c6.531,0,13.066-.125,19.592.064,2.4.07,3.325-1.307,4.513-3.067-.613-.028-1.041-.066-1.469-.066-6.408,0-12.821.13-19.225-.069-2.449-.078-3.558,1.312-5.081,3.138m.391,114.5c1.348,1.987,2.721,3.1,5.137,3.011,5.179-.2,10.372-.059,15.56-.059,1.265,0,2.533.033,3.8-.029.252-.013.72-.451.686-.607-.2-.942-2.307-2.414-3.342-2.414q-10.23-.005-20.462,0c-.392,0-.784.054-1.376.1m31.507,8.51.115-.338a26.257,26.257,0,0,0-2.364-1.972,4.336,4.336,0,0,0-2.136-.858c-6.691-.065-13.381-.041-20.074-.033a8.665,8.665,0,0,0-1.081.131c1.833,1.576,3.35,3.22,6.032,3.133,6.033-.2,12.076-.063,18.115-.064h1.393M40.443,108.761a10.332,10.332,0,0,1,.011-1.525c.225-1.312-.4-1.556-1.576-1.549-7.057.043-14.113.018-21.17.023-1.7,0-1.632.037-1.736,1.824-.084,1.427.812,1.225,1.653,1.227H40.443M67.19,44.619l-.069-.348H65.708c-5.923,0-11.849.1-17.769-.052a7.365,7.365,0,0,0-5.114,1.791c-.4.325-.764.688-1.228,1.107a2.272,2.272,0,0,0,.464.176q10.6.016,21.2.011a2,2,0,0,0,1.128-.374c.964-.732,1.873-1.535,2.8-2.312M16.771,122.532c.05.438.07.717.115.994.311,1.957.313,1.957,2.278,1.959,6.532,0,13.064.013,19.6-.008,2.823-.008,3.152.536,2.113-2.945Zm23.67-19.567c.039-.455.05-.863.115-1.262.257-1.549.262-1.55-1.35-1.55q-8.275,0-16.548,0c-1.675,0-3.351.019-5.026-.007-.736-.012-1.148.217-1.207,1.016a14.3,14.3,0,0,1-.374,1.8ZM42.413,131a6.139,6.139,0,0,1-.377-1.489c.049-1.247-.592-1.432-1.675-1.418-4.37.053-8.742.023-13.111.023-2.9,0-5.8-.015-8.7.018-.327,0-.859.215-.94.451a2.289,2.289,0,0,0,1.894,2.548q10.721,0,21.445-.006c.436,0,.873-.075,1.466-.129m-24.9-39.263H41.852A7.066,7.066,0,0,1,42.1,90.3c.472-1.168-.179-1.358-1.1-1.36h-3.31c-6.085,0-12.17-.012-18.257.023a1.676,1.676,0,0,0-1.274.568,9.805,9.805,0,0,0-.643,2.211m1.2,42c.145.511.235.778.294,1.051.426,1.933.423,1.935,2.39,1.935q6.361,0,12.723,0c2.731,0,5.464.018,8.2-.023.369-.006.963-.229,1.062-.5a1.908,1.908,0,0,0-1.863-2.466q-10.7,0-21.409,0H18.715M47.2,72.41c-.687-.034-1.205-.079-1.724-.081q-10.171-.008-20.345-.005c-1.814,0-2.749.962-2.854,2.944a1.336,1.336,0,0,0,.349.1c7.6.013,15.2.03,22.793,0a1.407,1.407,0,0,0,.994-.682A16.268,16.268,0,0,0,47.2,72.41M20.632,139.331c-.133,2.406.39,2.988,2.519,2.99H45.03c-.03-2.543-.451-2.99-2.67-2.99H20.632ZM27.5,64.13H49.7c1.65,0,2.756-1.115,2.89-3.033H51.134c-6.5,0-13,.113-19.492-.069-2.33-.066-3.577.727-4.141,3.1m5.641,13.693c-3.589,0-7.178-.009-10.766.006a1.963,1.963,0,0,0-1.789,2.088c-.008,1.277,1,.847,1.611.849,6.77.035,13.54.026,20.31.028a9.083,9.083,0,0,0,.979-.024,2.134,2.134,0,0,0,1.585-2.255c-.082-1.016-.964-.67-1.53-.676-3.465-.032-6.933-.015-10.4-.015m16.5,75.758c-.384-2.454-.991-3.011-3.148-3.011q-10.052,0-20.1,0c-.5,0-1.011.077-1.523.116.276,2.188,1.033,2.89,2.977,2.892h21.8m-27.412-8.53c.159.4.255.62.333.844.705,2.014.7,2.014,2.853,2.014H41.957c1.43,0,2.861.024,4.289-.023.283-.01.756-.256.8-.466a2.341,2.341,0,0,0-2.138-2.441q-10.662,0-21.324,0c-.4,0-.806.041-1.358.071m27.3-78.229c-.4-.026-.79-.073-1.184-.073q-10.6-.008-21.195,0c-.246,0-.621-.089-.713.033-.578.765-1.091,1.575-1.625,2.371a5.824,5.824,0,0,0,1.584.484c6.7.032,13.394.021,20.093.019,2.1,0,2.68-.522,3.039-2.833m6.851-11.208c-.552-.033-1.02-.086-1.486-.086-6.688,0-13.376.042-20.062-.038A2.8,2.8,0,0,0,31.9,57.107c-.18.374-.335.761-.5,1.143a6.812,6.812,0,0,0,1.264.244c6.524.016,13.052-.1,19.572.072,2.284.063,3.3-1.01,4.151-2.952M76.633,38.876a9.077,9.077,0,0,0-.957-.118c-4.493,0-8.988-.037-13.481.017A29.7,29.7,0,0,0,50.327,41.61c.542.078.766.137.99.139q9.8.005,19.608,0a1.83,1.83,0,0,0,.842-.092c1.578-.873,3.133-1.782,4.864-2.778M51.357,178.642c8.047,3.88,16.583,2.56,25.017,2.713a1.571,1.571,0,0,0-.658-.649,24.325,24.325,0,0,0-2.4-1.187,9.415,9.415,0,0,0-3.057-.931c-5.83-.087-11.662-.041-17.494-.035-.47,0-.939.058-1.408.089" transform="translate(-2.581 -5.93)" fill="#1c1c1c"/>
      <path id="Path_13251" data-name="Path 13251" d="M176.841,36.129c.9,0,1.8.022,2.693,0,.878-.028,1.425.293,1.425,1.237,0,.963-.523,1.393-1.462,1.387s-1.876,0-2.815,0c-1.626.009-1.674.055-1.677,1.63,0,1.306-.026,2.612.006,3.917.018.775-.273,1.107-1.072,1.083-1.346-.038-2.695.031-4.04-.021-.883-.034-1.27.254-1.22,1.179.056,1.017.024,2.04.008,3.059s-.54,1.416-1.553,1.43c-1.046.012-1.082-.621-1.081-1.363,0-1.835.031-3.673-.011-5.506-.024-1.062.412-1.458,1.465-1.39s2.12.017,3.181.015c1.961,0,1.961,0,1.963-1.906,0-1.143.033-2.286-.009-3.427-.037-1,.384-1.4,1.386-1.338.934.058,1.875.012,2.813.013" transform="translate(-27.62 -5.929)" fill="#1c1c1c"/>
      <path id="Path_13252" data-name="Path 13252" d="M14.68,204.41c-1.367,0-2.672.065-3.966-.02-1.071-.07-1.373.414-1.357,1.364.025,1.347-.021,2.7.011,4.045.023.932-.339,1.323-1.3,1.285-1.428-.056-2.861,0-4.291-.018a1.037,1.037,0,0,0-1.209,1.179c0,1.184-.038,2.371,0,3.555.031.924-.54.949-1.2.928S0,216.785,0,215.786c.008-1.963.013-3.923-.005-5.884-.011-.96.6-1.164,1.36-1.174,1.347-.02,2.7-.048,4.045-.007.99.031,1.4-.342,1.352-1.362-.063-1.3-.008-2.614-.016-3.922-.006-1.007.43-1.5,1.485-1.468,1.551.04,3.105.006,4.658.013,1.992.008,2.121.171,1.8,2.429" transform="translate(-0.359 -33.159)" fill="#1c1c1c"/>
    </g>
  </g>
  <g id="Group_2997" data-name="Group 2997">
    <g id="Group_2996" data-name="Group 2996" clip-path="url(#clip-path-2)">
      <path id="Path_13253" data-name="Path 13253" d="M1.659,36.182a13.179,13.179,0,0,1,1.094.807c3.5,3.462,6.982,6.942,10.5,10.39.8.787.529,1.333-.155,1.991-.726.7-1.146.326-1.7-.237-3.347-3.371-6.736-6.7-10.077-10.078a1.828,1.828,0,0,1-.566-1.325,5.273,5.273,0,0,1,.911-1.549" transform="translate(-0.121 -5.94)" fill="#1c1c1c"/>
    </g>
  </g>
  <g id="Group_2999" data-name="Group 2999" transform="translate(0.359 0)">
    <g id="Group_2998" data-name="Group 2998" clip-path="url(#clip-path)">
      <path id="Path_13254" data-name="Path 13254" d="M179.465,213.843c-.311.362-.556.632-.783.914-.607.744-1.158.686-1.823.01-3.159-3.2-6.348-6.375-9.526-9.558-.2-.2-.388-.409-.6-.593-.627-.55-.954-1.057-.185-1.811.7-.682,1.2-.741,1.918-.014,3.618,3.676,7.274,7.317,11,11.052" transform="translate(-27.63 -33.209)" fill="#1c1c1c"/>
      <path id="Path_13255" data-name="Path 13255" d="M92.259,8.464c0,2.362-.008,4.726,0,7.088,0,.869-.135,1.494-1.255,1.5-1.072,0-1.284-.5-1.278-1.433q.04-7.151,0-14.3c0-.9.224-1.3,1.223-1.317,1.065-.017,1.334.421,1.32,1.377-.035,2.362-.011,4.726-.011,7.088" transform="translate(-15.091 0)" fill="#1c1c1c"/>
      <path id="Path_13256" data-name="Path 13256" d="M92.254,242.732c0,2.37-.02,4.739.011,7.108.012.928-.314,1.318-1.288,1.306-.959-.01-1.264-.355-1.255-1.309.038-4.779.026-9.558.008-14.338-.005-.847.124-1.392,1.176-1.405s1.36.472,1.353,1.408c-.015,2.41,0,4.82,0,7.231" transform="translate(-15.09 -38.434)" fill="#1c1c1c"/>
    </g>
  </g>
  <g id="Group_3001" data-name="Group 3001">
    <g id="Group_3000" data-name="Group 3000" clip-path="url(#clip-path-2)">
      <path id="Path_13257" data-name="Path 13257" d="M29.95,106.012c3.632,0,7.263-.006,10.895,0,1.242,0,1.425.262,1.138,1.467-.434,1.813-.434,1.813-2.326,1.813q-10.345,0-20.689-.005c-.656,0-1.553.212-1.438-.924.239-2.38.013-2.356,1.525-2.356q5.447.005,10.895,0" transform="translate(-2.876 -17.405)" fill="#fff"/>
      <path id="Path_13258" data-name="Path 13258" d="M31.852,95.852c-3.593,0-7.186-.017-10.779.013-.952.006-1.451-.049-1.065-1.276.63-2,.538-2.028,2.588-2.028q10.288,0,20.576,0c1.327,0,1.484.2,1.229,1.5-.329,1.686-.448,1.787-2.139,1.787Z" transform="translate(-3.263 -15.197)" fill="#fff"/>
      <path id="Path_13259" data-name="Path 13259" d="M40.879,126.032v2.979H16.709c-.086-.131-.159-.194-.166-.264-.249-2.713-.247-2.713,2.42-2.713q10.166,0,20.335,0Z" transform="translate(-2.699 -20.692)" fill="#fff"/>
      <path id="Path_13260" data-name="Path 13260" d="M41.3,135.722c-.461.048-.887.131-1.312.133q-10.787.011-21.571-.011c-.441,0-1.171-.126-1.267-.381a6.106,6.106,0,0,1-.3-2.24c0-.153.671-.419,1.034-.42,7.394-.026,14.789-.013,22.183-.033.76,0,1,.319,1.011,1.021.009.563.124,1.122.221,1.93" transform="translate(-2.766 -21.799)" fill="#fff"/>
      <path id="Path_13261" data-name="Path 13261" d="M30.283,179.786c.525-.032.919-.074,1.312-.074q10.585-.008,21.17,0a3.134,3.134,0,0,1,2.617,2.431c0,.183-.283.47-.488.537a3.32,3.32,0,0,1-.972.037q-9.913,0-19.826,0c-2.456,0-2.828-.27-3.813-2.93" transform="translate(-4.972 -29.505)" fill="#fff"/>
      <path id="Path_13262" data-name="Path 13262" d="M34.757,186.387c.636-.032,1.153-.081,1.672-.081q9.675-.006,19.351,0c2.417,0,3.251.6,4.245,3.174H38.352c-1.789,0-2.992-.98-3.595-3.092" transform="translate(-5.706 -30.588)" fill="#fff"/>
      <path id="Path_13263" data-name="Path 13263" d="M39.556,55.654c1.523-1.825,2.632-3.215,5.081-3.137,6.4.2,12.816.065,19.225.069.429,0,.856.038,1.469.065-1.189,1.759-2.114,3.138-4.513,3.067-6.526-.19-13.061-.064-19.592-.064Z" transform="translate(-6.494 -8.622)" fill="#fff"/>
      <path id="Path_13264" data-name="Path 13264" d="M40.024,193.249c.592-.044.983-.1,1.375-.1q10.233-.006,20.463,0c1.033,0,3.137,1.473,3.342,2.414.033.156-.435.594-.687.608-1.263.063-2.531.029-3.8.029-5.188,0-10.38-.136-15.559.061-2.417.091-3.789-1.024-5.138-3.012" transform="translate(-6.571 -31.711)" fill="#fff"/>
      <path id="Path_13265" data-name="Path 13265" d="M72.7,202.819H71.309c-6.037,0-12.082-.131-18.113.064-2.683.089-4.2-1.556-6.032-3.133a8.662,8.662,0,0,1,1.081-.131c6.692-.007,13.383-.031,20.074.033a4.334,4.334,0,0,1,2.136.859,25.693,25.693,0,0,1,2.362,1.97c-.037.113-.074.224-.113.337" transform="translate(-7.743 -32.772)" fill="#fff"/>
      <path id="Path_13266" data-name="Path 13266" d="M40.922,122.427h-1.4q-10.707,0-21.414,0c-.843,0-1.738.2-1.654-1.227.1-1.785.038-1.823,1.737-1.823,7.057-.005,14.113.02,21.17-.023,1.175-.008,1.8.237,1.578,1.549a10.2,10.2,0,0,0-.013,1.526" transform="translate(-2.7 -19.595)" fill="#fff"/>
      <path id="Path_13267" data-name="Path 13267" d="M72.7,46.209c-.929.776-1.839,1.581-2.8,2.314a2.008,2.008,0,0,1-1.126.371q-10.6.021-21.2-.011a2.529,2.529,0,0,1-.464-.173c.464-.421.832-.783,1.229-1.11a7.364,7.364,0,0,1,5.114-1.79c5.92.148,11.845.051,17.769.051h1.414c.023.115.046.232.069.348" transform="translate(-7.734 -7.521)" fill="#fff"/>
      <path id="Path_13268" data-name="Path 13268" d="M17.409,139.508h24.1c1.039,3.48.708,2.935-2.113,2.945-6.533.022-13.066.008-19.6.007-1.964,0-1.966,0-2.278-1.959-.044-.275-.064-.554-.113-.992" transform="translate(-2.858 -22.905)" fill="#fff"/>
      <path id="Path_13269" data-name="Path 13269" d="M40.936,115.541H16.548a14.756,14.756,0,0,0,.374-1.8c.059-.8.47-1.028,1.207-1.016,1.674.026,3.349.008,5.025.008H39.7c1.615,0,1.606,0,1.352,1.55-.068.4-.077.807-.118,1.262" transform="translate(-2.717 -18.507)" fill="#fff"/>
      <path id="Path_13270" data-name="Path 13270" d="M43.2,149.07c-.593.053-1.03.128-1.466.128q-10.723.011-21.446.007a2.293,2.293,0,0,1-1.894-2.55c.083-.237.613-.447.94-.45,2.9-.034,5.8-.018,8.7-.018,4.372,0,8.743.03,13.114-.023,1.082-.013,1.723.171,1.673,1.418a6.151,6.151,0,0,0,.379,1.489" transform="translate(-3.011 -23.997)" fill="#fff"/>
      <path id="Path_13271" data-name="Path 13271" d="M18.3,102.114a9.831,9.831,0,0,1,.643-2.211,1.682,1.682,0,0,1,1.275-.568c6.085-.035,12.17-.023,18.257-.023q1.655,0,3.308,0c.92,0,1.57.191,1.1,1.36a7.237,7.237,0,0,0-.244,1.442Z" transform="translate(-3.004 -16.305)" fill="#fff"/>
      <path id="Path_13272" data-name="Path 13272" d="M19.735,152.914h22.8a1.908,1.908,0,0,1,1.864,2.467c-.1.267-.692.49-1.061.5-2.732.042-5.464.023-8.2.023H22.417c-1.965,0-1.963,0-2.388-1.935-.059-.273-.15-.54-.294-1.051" transform="translate(-3.24 -25.106)" fill="#fff"/>
      <path id="Path_13273" data-name="Path 13273" d="M48.922,79.522a16.24,16.24,0,0,1-.787,2.27,1.4,1.4,0,0,1-.993.684c-7.6.031-15.2.014-22.794,0a1.316,1.316,0,0,1-.348-.1c.1-1.982,1.039-2.943,2.854-2.943q10.171,0,20.343,0c.521,0,1.039.048,1.724.081" transform="translate(-3.94 -13.042)" fill="#fff"/>
      <path id="Path_13274" data-name="Path 13274" d="M22.024,159.6H43.752c2.219,0,2.639.447,2.669,2.989H24.542c-2.128,0-2.652-.583-2.517-2.989" transform="translate(-3.613 -26.204)" fill="#fff"/>
      <path id="Path_13275" data-name="Path 13275" d="M30.244,69.023c.564-2.375,1.811-3.168,4.141-3.1,6.493.181,12.994.067,19.493.069h1.459c-.135,1.918-1.24,3.033-2.89,3.033h-22.2Z" transform="translate(-4.966 -10.822)" fill="#fff"/>
      <path id="Path_13276" data-name="Path 13276" d="M34.528,86.008c3.467,0,6.933-.017,10.4.015.567.007,1.447-.34,1.529.678a2.133,2.133,0,0,1-1.583,2.253,9.1,9.1,0,0,1-.979.024c-6.77,0-13.54.008-20.31-.027-.61,0-1.619.429-1.611-.85a1.963,1.963,0,0,1,1.787-2.088c3.589-.015,7.179-.006,10.768-.006" transform="translate(-3.608 -14.115)" fill="#fff"/>
      <path id="Path_13277" data-name="Path 13277" d="M51.867,176.062H50.539q-10.235,0-20.469,0c-1.944,0-2.7-.7-2.977-2.89.511-.039,1.017-.114,1.525-.115q10.05-.011,20.1,0c2.156,0,2.763.557,3.148,3.011" transform="translate(-4.448 -28.412)" fill="#fff"/>
      <path id="Path_13278" data-name="Path 13278" d="M23.936,166.434c.554-.031.957-.07,1.36-.072q10.66,0,21.322,0a2.345,2.345,0,0,1,2.14,2.441c-.046.211-.519.458-.8.467-1.428.048-2.859.023-4.288.023q-8.275,0-16.545,0c-2.149,0-2.149,0-2.852-2.013-.079-.223-.174-.441-.334-.844" transform="translate(-3.93 -27.313)" fill="#fff"/>
      <path id="Path_13279" data-name="Path 13279" d="M51.743,72.832c-.359,2.312-.937,2.833-3.04,2.833-6.7,0-13.395.013-20.092-.02a5.821,5.821,0,0,1-1.584-.483c.534-.8,1.048-1.607,1.625-2.371.092-.12.469-.033.713-.033q10.6,0,21.2,0c.392,0,.785.048,1.183.074" transform="translate(-4.437 -11.941)" fill="#fff"/>
      <path id="Path_13280" data-name="Path 13280" d="M59.887,59.418c-.852,1.942-1.868,3.014-4.151,2.953-6.519-.176-13.047-.057-19.572-.072a6.749,6.749,0,0,1-1.264-.246c.168-.382.323-.767.5-1.143a2.8,2.8,0,0,1,2.935-1.617c6.687.079,13.374.033,20.062.04.466,0,.934.052,1.486.085" transform="translate(-5.73 -9.735)" fill="#fff"/>
      <path id="Path_13281" data-name="Path 13281" d="M83.86,39.391C82.128,40.386,80.573,41.3,79,42.17a1.825,1.825,0,0,1-.841.092q-9.805.009-19.61,0a9.2,9.2,0,0,1-.99-.138A29.7,29.7,0,0,1,69.422,39.29c4.494-.053,8.988-.019,13.481-.017a9.052,9.052,0,0,1,.957.118" transform="translate(-9.449 -6.446)" fill="#fff"/>
      <path id="Path_13282" data-name="Path 13282" d="M58.787,206.616c.47-.031.939-.087,1.408-.087,5.832-.008,11.664-.054,17.494.035a9.41,9.41,0,0,1,3.057.929,24.323,24.323,0,0,1,2.4,1.187,1.571,1.571,0,0,1,.658.649c-8.434-.151-16.97,1.168-25.017-2.713" transform="translate(-9.652 -33.905)" fill="#fff"/>
      <path id="Path_13283" data-name="Path 13283" d="M87.131,139.313c5.913-3.424,8.248-9.494,8.248-15.562,0-7.313-4.045-13.695-4.045-20.852,0-7.938,4.823-12.918,12.76-12.918a13.32,13.32,0,0,1,10.894,5.449l-1.712,1.555c-2.179-2.645-4.981-4.825-9.337-4.825-6.692,0-10.116,4.825-10.116,10.583,0,7,3.891,12.76,3.891,21.008,0,6.848-2.179,10.893-5.913,14.473v.311h23.343v2.179H87.131ZM86.82,115.66l5.134-.157h17.587v2.179H86.82Z" transform="translate(-14.254 -14.773)"/>
    </g>
  </g>
</svg>
