<svg xmlns="http://www.w3.org/2000/svg" width="16.131" height="16.131" viewBox="0 0 16.131 16.131">
  <g id="noun-download-5060491" transform="translate(-87.495 -17.5)">
    <path id="Path_13216" data-name="Path 13216" d="M102.73,367.5a.9.9,0,0,0-.9.9v2.151a.539.539,0,0,1-.538.538H89.825a.539.539,0,0,1-.538-.538V368.4a.9.9,0,1,0-1.792,0v2.151a2.333,2.333,0,0,0,2.33,2.33H101.3a2.333,2.333,0,0,0,2.33-2.33V368.4a.9.9,0,0,0-.9-.9Z" transform="translate(0 -339.246)" fill="#18242a"/>
    <path id="Path_13217" data-name="Path 13217" d="M186.05,17.5a.9.9,0,0,0-.9.9V26.52l-2.832-2.36a.9.9,0,0,0-1.147,1.377l4.3,3.585a.913.913,0,0,0,.143.083.763.763,0,0,0,.756.059,86.508,86.508,0,0,0,.244-.141l4.3-3.585a.895.895,0,1,0-1.143-1.377l-2.832,2.36V18.4a.9.9,0,0,0-.9-.9Z" transform="translate(-90.489)" fill="#18242a"/>
  </g>
</svg>
