<svg id="Group_3076" data-name="Group 3076" xmlns="http://www.w3.org/2000/svg" xmlns:xlink="http://www.w3.org/1999/xlink" width="171.076" height="267.198" viewBox="0 0 171.076 267.198">
  <defs>
    <clipPath id="clip-path">
      <rect id="Rectangle_1346" data-name="Rectangle 1346" width="171.076" height="267.198" fill="none"/>
    </clipPath>
  </defs>
  <g id="Group_3012" data-name="Group 3012" clip-path="url(#clip-path)">
    <path id="Path_13287" data-name="Path 13287" d="M67.9,204.312c-2.08.555-3.977.961-5.8,1.58a4.426,4.426,0,0,0-3.309,3.9,4.046,4.046,0,0,0,2.029,4.307,9.925,9.925,0,0,0,7.77.724c.26-.081.626-.494.6-.711-.388-3.214-.835-6.419-1.291-9.8m.467-13.348c-.16-2.223-.391-4.843-.519-7.468-.06-1.223-.63-1.582-1.727-1.353-1.487.311-2.991.566-4.448.978a6.2,6.2,0,0,0-4.384,6.037c.108,3.1,1.923,5.584,4.812,6.026a28.839,28.839,0,0,0,5.365-.084c.8-.03.986-.514.917-1.263-.076-.817-.017-1.643-.017-2.873m1.95-35a67.09,67.09,0,0,0-6.757,1.259c-4.652,1.349-6.337,7.8-3.019,11.37a9.647,9.647,0,0,0,10.176,3.058c.831-.223,1.127-.523,1.025-1.418-.347-3.025-.6-6.056-.9-9.085-.159-1.625-.328-3.25-.525-5.184m.432-14.927c-.255-2.8-.572-6.356-.9-9.91-.073-.777-.385-1.325-1.3-1.306a19.77,19.77,0,0,0-9.553,2.5c-3.462,1.993-4.054,7.334-1.013,9.713,3.219,2.514,6.9,3.584,10.987,2.255,1.823-.594,1.817-.611,1.78-3.251m-10.274,76.81c.013-.134.026-.266.037-.4-.74-.632-1.536-1.21-2.215-1.906-3.269-3.356-3.66-9.8,2.566-12.306a39.458,39.458,0,0,1,7.286-1.785c1.64-.312,2.666.588,2.9,2.258.13.936.16,1.886.283,2.823.283,2.16.572,4.318.9,6.47.1.641.324,1.2,1.234.827a6.953,6.953,0,0,0,4.463-7.573,15.079,15.079,0,0,0-.674-2.748,7.929,7.929,0,0,0-8.687-5.575c-3.021.35-6.039.758-9.043,1.241-4.543.734-9.045,1.819-13.614,2.283-6.988.708-14.018,1.021-21.033,1.487-1.722.115-2.6.7-3.078,2.322a24.636,24.636,0,0,0-.794,3.484A10.12,10.12,0,0,0,27.12,219.4a23.122,23.122,0,0,0,10.9,1.481c4.373-.473,8.732-1.068,13.092-1.655,3.125-.422,6.242-.915,9.363-1.377m-2.21-20.9c-.823-1.03-1.427-1.748-1.992-2.5-3.365-4.466-1.925-11.379,3.146-13.461,2.717-1.119,5.814-1.373,8.769-1.826,1.308-.2,2.059.534,2.312,1.895a29.309,29.309,0,0,1,.336,3.557c.17,2.948.309,5.9.462,8.864a12.684,12.684,0,0,0,5.782-3.306,5.187,5.187,0,0,0,1.124-1.585,10.481,10.481,0,0,0-3.4-12.392,6,6,0,0,0-4.5-1.283c-4.247.488-8.5.98-12.754,1.392a279.665,279.665,0,0,1-34.366,1.651,26.732,26.732,0,0,1-8.762-1.189c-1.908-.708-2.366-.5-3.27,1.357a19.445,19.445,0,0,0-1.778,10.083c.358,5.122,2.974,8.383,7.707,10.291a20.76,20.76,0,0,0,9.438,1.332c8.447-.615,16.883-1.419,25.319-2.167,2.033-.182,4.063-.449,6.432-.715m16.509-26.689a8.121,8.121,0,0,0,.881-.005c4.573-.568,7.258-4.169,6.906-9.194-.461-6.6-3.828-10.978-10.076-13.049a10.956,10.956,0,0,0-4.336-.5c-4.176.387-8.324,1.064-12.5,1.494-7.485.772-14.97,1.689-22.524,1.11-4.429-.341-8.857-.676-13.282-1.073a15.393,15.393,0,0,1-7.777-2.512,1.218,1.218,0,0,0-1.848.3,33.828,33.828,0,0,0-3.056,5c-1.985,4.507-1.5,9.221-.447,13.82a9.589,9.589,0,0,0,4.712,6.669,21.509,21.509,0,0,0,10.9,2.743q15.288-.6,30.568-1.346c2.6-.128,5.2-.451,8.182-.717-.874-.812-1.478-1.342-2.048-1.908-3.006-2.97-3.542-6.607-2.542-10.491.932-3.633,3.522-5.663,7.133-6.352,2.218-.423,4.467-.723,6.715-.97,1.88-.2,2.555.376,2.775,2.27.268,2.291.436,4.589.693,6.877.3,2.6.643,5.2.972,7.835m4.163,43.4c.585-.04,1.073-.051,1.557-.11,8.57-1.057,17.145-2.072,25.709-3.195,14.81-1.94,29.538-4.35,44.137-7.549a10.981,10.981,0,0,0,7.12-4.831c4.388-6.494,6.8-13.758,8.406-21.337a116.085,116.085,0,0,0,2.033-27.365,110.378,110.378,0,0,0-5.736-32.8c-2.264-6.667-5.15-13-9.883-18.345a2.913,2.913,0,0,0-2.43-1.144c-2.508.044-5.022.1-7.524-.048-4.349-.257-8.689-.64-13.029-1.01a21.02,21.02,0,0,1-11.172-4.154c-4.584-3.5-7.161-8.409-9.042-13.716a85.635,85.635,0,0,1-4.55-26.647c-.236-9.209-.4-18.421-.566-27.632A39.414,39.414,0,0,0,100.91,9.135,8.891,8.891,0,0,0,93.958,3.3c-2.528-.424-4.978-.879-7.573.366-2.325,1.116-4.614,2.139-6.422,4.016A29.468,29.468,0,0,0,72.615,19.83a119.08,119.08,0,0,0-3.7,16.457c-1.761,12.559-2.174,25.239-2.372,37.906-.1,6.451.218,12.911.38,19.364.1,3.816-.2,4.042-4.054,4.5C52.376,99.3,41.883,100.56,31.413,102c-3.857.534-7.619,1.736-11.47,2.37a12.432,12.432,0,0,0-5.622,2.308q-1.379,1.039-2.778,2.056C3.983,114.2.208,127.432,4.978,135.709c1.3,2.257,2.51,4.573,4.656,6.142,1.083.792,2.43,1.224,3.512,2.016a12.426,12.426,0,0,0,6.55,2.285q9.2.751,18.408,1.489a4.764,4.764,0,0,0,.736-.043c3.98-.309,7.96-.594,11.933-.937,2.478-.213,4.948-.518,7.418-.781a1.489,1.489,0,0,0-.667-.839,9.034,9.034,0,0,1-3.795-10.281,9.664,9.664,0,0,1,7.185-6.505,54.157,54.157,0,0,1,8.258-1.291c2.123-.221,2.892.471,3.384,2.536a10.727,10.727,0,0,1,.251,1.459c.253,2.621.487,5.241.732,7.863.078.818.038,1.906,1.042,1.968a2.9,2.9,0,0,0,1.968-1.081c2.737-3.248,3.039-7.069,1.966-10.951-1.306-4.733-4.761-7.3-9.406-8.469a56.081,56.081,0,0,0-13.716-1.28,124.97,124.97,0,0,0-22.852,1.708c-1.36.25-2.739.384-4.08.567-.608-2.072-.349-2.578,1.563-2.914,3.242-.565,6.478-1.251,9.747-1.536,5.446-.472,10.917-.615,16.373-1a38.2,38.2,0,0,1,16.418,2.721A14.755,14.755,0,0,1,77.029,143.4c-.825.723-1.651,1.44-2.568,2.238.412.242.695.389.961.561a38.416,38.416,0,0,1,5.111,3.406c3.887,3.544,5.193,8.173,4.927,13.305a10.339,10.339,0,0,1-7.151,9.827c-.6.23-1.185.488-2.065.855,3.635,3.274,5.915,6.954,5.694,11.849-.232,5.1-3.208,8.156-7.5,10.25,6.233,4.891,8.659,10.53,4.509,17.972M19.307,202.423c-1.383-.609-3-1.321-4.614-2.027-5.622-2.454-8.277-6.684-8.332-12.876a22.074,22.074,0,0,1,2.612-11.378,1.451,1.451,0,0,0-.414-2.157c-3.825-3.267-5.094-7.7-5.625-12.494-.585-5.3.879-12.153,5.055-16.69-.417-.5-.827-1.04-1.287-1.537a23.131,23.131,0,0,1-5.763-9.807A25.2,25.2,0,0,1,6.2,109.985c4.56-5.532,10.674-8.35,17.553-9.746a255.746,255.746,0,0,1,29.085-3.965c3.033-.262,6.058-.609,9.078-.985,2.008-.25,2.18-.537,2.144-2.525-.117-6.417-.445-12.837-.274-19.248.25-9.412.8-18.818,1.333-28.219a113.291,113.291,0,0,1,3.43-22.531A46.965,46.965,0,0,1,73.36,11.436a28.2,28.2,0,0,1,8.123-8.672C85.632-.273,90.151-.5,95.01.618a10.99,10.99,0,0,1,8.078,6.39,45.25,45.25,0,0,1,3.568,13.419c.955,7.883.246,15.783.479,23.672.248,8.435.347,16.9,2.5,25.114a79.3,79.3,0,0,0,4.425,12.92,17.878,17.878,0,0,0,11.851,10.029A61.265,61.265,0,0,0,142.507,94.2c2.51.021,5.02,0,7.53-.026a6.467,6.467,0,0,1,5.635,2.61c4.636,5.941,7.613,12.676,9.9,19.755a121.379,121.379,0,0,1,5.469,34.856,103.659,103.659,0,0,1-5.318,36.181,49.325,49.325,0,0,1-7.849,14.057,9.5,9.5,0,0,1-5.39,3.6c-10.707,2.733-21.624,4.336-32.513,6.014-13.778,2.121-27.613,3.878-41.447,5.622a108.463,108.463,0,0,0-11.936,2.51,148.451,148.451,0,0,1-20.622,3.706c-3.64.349-7.237,1.112-10.921.827a26.313,26.313,0,0,1-10.673-2.748A12.513,12.513,0,0,1,18.1,208.834c.3-2.1.779-4.166,1.206-6.411" transform="translate(0 0)"/>
    <path id="Path_13288" data-name="Path 13288" d="M91.424,265.17c-13.737-.087-27.473-.339-41.156-1.685-7.328-.723-14.648-1.58-21.678-3.929a18,18,0,0,1-4.3-2.091c-1.883-1.265-1.943-3.278-.1-4.6a18.919,18.919,0,0,1,4.679-2.41c5.854-2.051,11.963-2.959,18.087-3.736,15.956-2.025,32-2.24,48.042-1.942,11.548.211,23.1.753,34.625,1.5,9.229.6,18.447,1.617,27.394,4.17a23.834,23.834,0,0,1,5.534,2.346c2.661,1.569,2.57,3.473-.1,5.007a26.8,26.8,0,0,1-9.68,3.182c-7.488,1.044-14.986,2.173-22.518,2.676-12.92.859-25.869,1.265-38.806,1.861-.006-.119-.011-.238-.017-.356" transform="translate(0.156 1.671)"/>
    <path id="Path_13289" data-name="Path 13289" d="M70.371,140.16c.039,2.64.043,2.657-1.778,3.25-4.084,1.33-7.771.26-10.987-2.255-3.041-2.378-2.45-7.72,1.013-9.712a19.775,19.775,0,0,1,9.551-2.5c.917-.019,1.227.53,1.3,1.306.33,3.557.647,7.112.9,9.911" transform="translate(0.38 0.881)" fill="#fff"/>
    <path id="Path_13290" data-name="Path 13290" d="M69.922,154.91c.2,1.934.364,3.559.525,5.182.3,3.031.553,6.062.9,9.087.1.9-.192,1.2-1.023,1.416a9.649,9.649,0,0,1-10.179-3.056c-3.315-3.574-1.631-10.021,3.021-11.37a67.156,67.156,0,0,1,6.758-1.259" transform="translate(0.399 1.058)" fill="#fff"/>
    <path id="Path_13291" data-name="Path 13291" d="M67.98,189.729c0,1.23-.058,2.059.017,2.872.069.749-.119,1.234-.917,1.265a28.925,28.925,0,0,1-5.365.083c-2.888-.44-4.7-2.925-4.811-6.026a6.194,6.194,0,0,1,4.383-6.035c1.46-.415,2.962-.669,4.449-.98,1.1-.229,1.665.129,1.727,1.353.127,2.627.357,5.247.518,7.468" transform="translate(0.389 1.235)" fill="#fff"/>
    <path id="Path_13292" data-name="Path 13292" d="M67.5,202.925c.457,3.389.9,6.594,1.291,9.806.026.217-.339.63-.6.712a9.935,9.935,0,0,1-7.77-.723,4.05,4.05,0,0,1-2.029-4.31,4.426,4.426,0,0,1,3.308-3.9c1.823-.619,3.719-1.023,5.8-1.58" transform="translate(0.399 1.386)" fill="#fff"/>
    <path id="Path_13293" data-name="Path 13293" d="M84.157,37.257c-4.967-.215-8.185-2.719-9.557-7.332a22.491,22.491,0,0,1-.682-2.625,3.524,3.524,0,0,1,.07-1.8,1.617,1.617,0,0,1,1.164-.838c.33-.021.812.468,1.023.844a4.738,4.738,0,0,1,.322,1.433c.11.566.176,1.14.318,1.694,1.25,4.921,5.314,7.058,10.047,5.252,3.31-1.263,5.476-3.827,7.384-6.665a6.221,6.221,0,0,1,1.293-1.614,1.53,1.53,0,0,1,1.4.03A1.341,1.341,0,0,1,97.3,26.9c-2.554,5.558-6.477,9.462-12.819,10.345a2.078,2.078,0,0,1-.325.017" transform="translate(0.504 0.168)"/>
    <path id="Path_13294" data-name="Path 13294" d="M84.865,16.741A4.1,4.1,0,0,1,82.834,20.1a1.6,1.6,0,0,1-2.625-1.073,6.4,6.4,0,0,1,.821-4.6,1.748,1.748,0,0,1,2.251-.736c1.112.341,1.633,1.206,1.584,3.05" transform="translate(0.547 0.093)"/>
    <path id="Path_13295" data-name="Path 13295" d="M87.975,18.265c.306-.838.557-1.7.932-2.506a1.869,1.869,0,0,1,2.323-1.144c1.135.291,2.009.972,1.972,2.2a7.052,7.052,0,0,1-.674,2.7A2.238,2.238,0,0,1,89.8,20.885c-1.089-.265-1.663-1.146-1.823-2.62" transform="translate(0.601 0.099)"/>
  </g>
</svg>
