<svg id="Group_3013" data-name="Group 3013" xmlns="http://www.w3.org/2000/svg" xmlns:xlink="http://www.w3.org/1999/xlink" width="132.373" height="206.75" viewBox="0 0 132.373 206.75">
  <defs>
    <clipPath id="clip-path">
      <rect id="Rectangle_1346" data-name="Rectangle 1346" width="132.373" height="206.75" fill="none"/>
    </clipPath>
  </defs>
  <g id="Group_3012" data-name="Group 3012" clip-path="url(#clip-path)">
    <path id="Path_13287" data-name="Path 13287" d="M52.541,158.091c-1.61.429-3.077.743-4.487,1.222a3.424,3.424,0,0,0-2.561,3.021,3.131,3.131,0,0,0,1.57,3.333,7.68,7.68,0,0,0,6.012.56c.2-.062.485-.383.464-.55-.3-2.487-.646-4.966-1-7.586m.361-10.328c-.124-1.72-.3-3.747-.4-5.778-.047-.947-.488-1.224-1.336-1.047-1.151.241-2.315.438-3.442.756a4.8,4.8,0,0,0-3.392,4.671,4.556,4.556,0,0,0,3.723,4.663,22.315,22.315,0,0,0,4.152-.065c.618-.023.763-.4.71-.977-.058-.632-.013-1.271-.013-2.223m1.509-27.079a51.916,51.916,0,0,0-5.228.974c-3.6,1.044-4.9,6.032-2.336,8.8a7.465,7.465,0,0,0,7.874,2.366c.643-.172.872-.4.793-1.1-.269-2.34-.467-4.686-.7-7.029-.123-1.257-.254-2.515-.406-4.011m.334-11.55c-.2-2.166-.443-4.918-.7-7.668-.057-.6-.3-1.025-1-1.01a15.3,15.3,0,0,0-7.392,1.934c-2.679,1.542-3.136,5.675-.784,7.516a8.809,8.809,0,0,0,8.5,1.745c1.411-.46,1.406-.473,1.377-2.516M46.8,168.567c.01-.1.02-.206.029-.309-.573-.489-1.189-.936-1.714-1.475-2.53-2.6-2.832-7.585,1.986-9.522a30.532,30.532,0,0,1,5.638-1.381,1.784,1.784,0,0,1,2.241,1.747c.1.725.124,1.459.219,2.184.219,1.671.443,3.341.7,5.006.077.5.251.927.955.64A5.38,5.38,0,0,0,60.3,159.6a11.668,11.668,0,0,0-.521-2.126,6.135,6.135,0,0,0-6.722-4.314c-2.338.271-4.673.587-7,.961-3.515.568-7,1.408-10.534,1.767-5.407.548-10.847.79-16.274,1.151a2.244,2.244,0,0,0-2.382,1.8,19.062,19.062,0,0,0-.615,2.7,7.83,7.83,0,0,0,4.727,8.24,17.891,17.891,0,0,0,8.437,1.146c3.383-.366,6.757-.827,10.13-1.281,2.418-.326,4.83-.708,7.244-1.066M45.086,152.4c-.636-.8-1.1-1.352-1.541-1.934-2.6-3.456-1.49-8.8,2.435-10.416a29.666,29.666,0,0,1,6.786-1.413c1.012-.155,1.593.413,1.789,1.466a22.678,22.678,0,0,1,.26,2.752c.132,2.281.239,4.564.358,6.859a9.815,9.815,0,0,0,4.474-2.558,4.013,4.013,0,0,0,.869-1.226,8.11,8.11,0,0,0-2.633-9.589,4.64,4.64,0,0,0-3.484-.993c-3.286.378-6.574.758-9.868,1.077A216.394,216.394,0,0,1,17.939,137.7a20.684,20.684,0,0,1-6.78-.92c-1.476-.548-1.831-.39-2.53,1.05a15.046,15.046,0,0,0-1.376,7.8c.277,3.963,2.3,6.486,5.964,7.963a16.063,16.063,0,0,0,7.3,1.031c6.536-.476,13.063-1.1,19.591-1.677,1.573-.141,3.143-.347,4.977-.553m12.774-20.651a6.284,6.284,0,0,0,.682,0c3.538-.439,5.616-3.226,5.344-7.114-.357-5.105-2.962-8.495-7.8-10.1a8.477,8.477,0,0,0-3.355-.39c-3.232.3-6.441.823-9.67,1.156-5.792.6-11.583,1.307-17.428.859-3.427-.264-6.853-.523-10.277-.83a11.911,11.911,0,0,1-6.017-1.944.943.943,0,0,0-1.43.235,26.176,26.176,0,0,0-2.364,3.868c-1.536,3.487-1.162,7.135-.346,10.693a7.419,7.419,0,0,0,3.646,5.16,16.643,16.643,0,0,0,8.432,2.122q11.83-.46,23.653-1.042c2.015-.1,4.025-.349,6.331-.555-.676-.628-1.144-1.038-1.585-1.476-2.326-2.3-2.741-5.112-1.967-8.118a6.489,6.489,0,0,1,5.52-4.915c1.716-.327,3.457-.559,5.2-.75,1.454-.158,1.977.291,2.147,1.757.207,1.772.337,3.551.536,5.321.229,2.015.5,4.026.752,6.063m3.221,33.584c.453-.031.83-.04,1.2-.085,6.631-.818,13.267-1.6,19.893-2.472,11.46-1.5,22.856-3.366,34.152-5.841a8.5,8.5,0,0,0,5.509-3.738,45.893,45.893,0,0,0,6.5-16.51,89.824,89.824,0,0,0,1.573-21.174,85.407,85.407,0,0,0-4.438-25.381c-1.752-5.159-3.985-10.057-7.647-14.2a2.254,2.254,0,0,0-1.881-.885c-1.941.034-3.886.076-5.822-.037-3.365-.2-6.723-.5-10.082-.781A16.265,16.265,0,0,1,91.4,71.016c-3.547-2.706-5.541-6.507-7-10.613a66.262,66.262,0,0,1-3.521-20.619c-.182-7.126-.306-14.254-.438-21.381A30.5,30.5,0,0,0,78.081,7.069,6.88,6.88,0,0,0,72.7,2.555c-1.956-.328-3.852-.68-5.86.284a16.206,16.206,0,0,0-4.969,3.108,22.8,22.8,0,0,0-5.686,9.4,92.142,92.142,0,0,0-2.862,12.734,237.769,237.769,0,0,0-1.835,29.331c-.079,4.991.169,9.99.294,14.984.074,2.953-.152,3.128-3.136,3.482-8.119.963-16.239,1.937-24.34,3.054-2.985.413-5.9,1.343-8.875,1.834a9.62,9.62,0,0,0-4.35,1.786q-1.067.8-2.149,1.591C3.082,88.364.161,98.6,3.852,105.008a14.233,14.233,0,0,0,3.6,4.752c.838.613,1.881.947,2.717,1.56a9.615,9.615,0,0,0,5.069,1.768q7.121.581,14.243,1.152a3.688,3.688,0,0,0,.569-.034c3.08-.239,6.159-.46,9.233-.725,1.917-.165,3.828-.4,5.74-.6a1.152,1.152,0,0,0-.516-.649,6.99,6.99,0,0,1-2.936-7.955,7.478,7.478,0,0,1,5.559-5.033,41.905,41.905,0,0,1,6.39-1c1.643-.171,2.237.365,2.618,1.962a8.3,8.3,0,0,1,.194,1.129c.2,2.028.377,4.055.566,6.084.06.633.03,1.475.806,1.523a2.243,2.243,0,0,0,1.523-.837c2.117-2.513,2.351-5.47,1.521-8.474-1.01-3.662-3.684-5.651-7.278-6.553a43.393,43.393,0,0,0-10.613-.99A96.7,96.7,0,0,0,25.18,93.406c-1.053.193-2.119.3-3.157.439-.471-1.6-.27-2,1.209-2.255,2.509-.437,5.012-.968,7.542-1.189,4.214-.365,8.447-.476,12.669-.771a29.558,29.558,0,0,1,12.7,2.106A11.417,11.417,0,0,1,59.6,110.963c-.638.559-1.278,1.114-1.987,1.732.319.187.538.3.743.434a29.724,29.724,0,0,1,3.954,2.636c3.008,2.742,4.018,6.324,3.813,10.3a8,8,0,0,1-5.533,7.6c-.463.178-.917.378-1.6.661,2.812,2.533,4.577,5.381,4.406,9.169-.179,3.946-2.482,6.311-5.807,7.931,4.823,3.785,6.7,8.148,3.489,13.906m-46.143-8.7c-1.07-.471-2.32-1.022-3.57-1.568-4.35-1.9-6.4-5.172-6.447-9.963a17.08,17.08,0,0,1,2.021-8.8,1.122,1.122,0,0,0-.32-1.669c-2.96-2.528-3.941-5.955-4.353-9.667-.453-4.1.68-9.4,3.912-12.914-.323-.386-.64-.8-1-1.19a17.9,17.9,0,0,1-4.459-7.588A19.5,19.5,0,0,1,4.8,85.1c3.528-4.28,8.26-6.461,13.582-7.541a197.888,197.888,0,0,1,22.505-3.068c2.347-.2,4.688-.471,7.024-.762,1.553-.193,1.687-.415,1.659-1.954-.09-4.965-.344-9.933-.212-14.893.193-7.283.616-14.561,1.031-21.835a87.662,87.662,0,0,1,2.654-17.434,36.34,36.34,0,0,1,3.719-8.767,21.82,21.82,0,0,1,6.285-6.71C66.26-.211,69.756-.388,73.516.478a8.5,8.5,0,0,1,6.25,4.945,35.013,35.013,0,0,1,2.761,10.383c.739,6.1.19,12.212.371,18.316.192,6.527.269,13.078,1.935,19.433a61.363,61.363,0,0,0,3.424,10,13.833,13.833,0,0,0,9.17,7.76,47.4,47.4,0,0,0,12.84,1.58c1.942.016,3.884,0,5.827-.02a5,5,0,0,1,4.36,2.019,48.673,48.673,0,0,1,7.662,15.286,93.92,93.92,0,0,1,4.232,26.971,80.208,80.208,0,0,1-4.115,28,38.166,38.166,0,0,1-6.074,10.877,7.353,7.353,0,0,1-4.17,2.787c-8.284,2.114-16.732,3.355-25.157,4.653-10.661,1.641-21.366,3-32.071,4.35a83.929,83.929,0,0,0-9.236,1.942,114.87,114.87,0,0,1-15.957,2.868c-2.816.27-5.6.86-8.45.64a20.361,20.361,0,0,1-8.259-2.126,9.682,9.682,0,0,1-4.854-9.546c.234-1.622.6-3.224.933-4.96" transform="translate(0 0)"/>
    <path id="Path_13288" data-name="Path 13288" d="M75.909,260.533c-10.629-.067-21.258-.263-31.845-1.3-5.67-.559-11.334-1.222-16.774-3.04a13.928,13.928,0,0,1-3.328-1.618,2,2,0,0,1-.079-3.556,14.639,14.639,0,0,1,3.62-1.865A67.762,67.762,0,0,1,41.5,246.259a256.869,256.869,0,0,1,37.173-1.5c8.936.164,17.874.583,26.792,1.164a100.635,100.635,0,0,1,21.2,3.227,18.443,18.443,0,0,1,4.282,1.815c2.059,1.214,1.989,2.687-.079,3.874a20.74,20.74,0,0,1-7.49,2.462c-5.794.808-11.6,1.681-17.424,2.071-10,.665-20.017.978-30.027,1.44,0-.092-.009-.184-.013-.276" transform="translate(-5.047 -54.059)"/>
    <path id="Path_13289" data-name="Path 13289" d="M67.038,137.622c.03,2.043.034,2.056-1.376,2.515a8.8,8.8,0,0,1-8.5-1.745c-2.353-1.84-1.9-5.974.784-7.515a15.3,15.3,0,0,1,7.39-1.934c.71-.015.95.41,1,1.01.256,2.752.5,5.5.7,7.669" transform="translate(-12.293 -28.489)" fill="#fff"/>
    <path id="Path_13290" data-name="Path 13290" d="M67.318,154.91c.152,1.5.282,2.754.406,4.01.229,2.345.428,4.691.695,7.031.08.693-.149.925-.792,1.1a7.466,7.466,0,0,1-7.876-2.364c-2.565-2.766-1.262-7.754,2.338-8.8a51.97,51.97,0,0,1,5.229-.974" transform="translate(-12.906 -34.226)" fill="#fff"/>
    <path id="Path_13291" data-name="Path 13291" d="M65.474,187.719c0,.952-.045,1.593.013,2.223.054.58-.092.955-.71.978a22.38,22.38,0,0,1-4.152.064,4.554,4.554,0,0,1-3.722-4.663,4.792,4.792,0,0,1,3.391-4.67c1.13-.321,2.292-.517,3.443-.758.848-.177,1.289.1,1.336,1.047.1,2.033.277,4.06.4,5.778" transform="translate(-12.572 -39.956)" fill="#fff"/>
    <path id="Path_13292" data-name="Path 13292" d="M65.437,202.925c.354,2.622.7,5.1,1,7.587.02.168-.263.488-.464.551a7.687,7.687,0,0,1-6.012-.559,3.134,3.134,0,0,1-1.57-3.335,3.425,3.425,0,0,1,2.56-3.021c1.411-.479,2.878-.792,4.487-1.222" transform="translate(-12.896 -44.835)" fill="#fff"/>
    <path id="Path_13293" data-name="Path 13293" d="M81.822,34.409a7.415,7.415,0,0,1-7.395-5.673A17.4,17.4,0,0,1,73.9,26.7a2.726,2.726,0,0,1,.055-1.391,1.251,1.251,0,0,1,.9-.648c.256-.016.628.362.792.653a3.666,3.666,0,0,1,.249,1.109c.085.438.136.882.246,1.311.968,3.808,4.112,5.461,7.774,4.064,2.562-.977,4.237-2.961,5.714-5.157a4.813,4.813,0,0,1,1-1.249,1.184,1.184,0,0,1,1.087.023,1.037,1.037,0,0,1,.276.971c-1.976,4.3-5.012,7.322-9.919,8a1.609,1.609,0,0,1-.252.013" transform="translate(-16.314 -5.45)"/>
    <path id="Path_13294" data-name="Path 13294" d="M83.779,16.021a3.175,3.175,0,0,1-1.571,2.6,1.237,1.237,0,0,1-2.031-.83,4.956,4.956,0,0,1,.635-3.56,1.353,1.353,0,0,1,1.742-.569c.86.264,1.264.933,1.225,2.36" transform="translate(-17.69 -2.996)"/>
    <path id="Path_13295" data-name="Path 13295" d="M87.975,17.422c.237-.648.431-1.314.721-1.939a1.446,1.446,0,0,1,1.8-.885c.878.225,1.554.752,1.526,1.7A5.457,5.457,0,0,1,91.5,18.39a1.732,1.732,0,0,1-2.113,1.059c-.843-.2-1.287-.887-1.411-2.027" transform="translate(-19.438 -3.212)"/>
  </g>
</svg>
