<svg xmlns="http://www.w3.org/2000/svg" width="95.336" height="140.037" viewBox="0 0 95.336 140.037">
  <g id="Group_3032" data-name="Group 3032" transform="matrix(0.996, -0.087, 0.087, 0.996, -289.28, -86.551)">
    <path id="Path_12970" data-name="Path 12970" d="M314.05,221.82c-1.044.28-2,.484-2.909.8a2.227,2.227,0,0,0-1.66,1.967,2.042,2.042,0,0,0,1.018,2.17,4.958,4.958,0,0,0,3.9.364c.13-.04.314-.249.3-.358-.195-1.619-.419-3.233-.647-4.94m.233-6.724c-.08-1.12-.2-2.44-.259-3.762-.03-.617-.316-.8-.867-.682-.746.157-1.5.285-2.232.492a3.122,3.122,0,0,0-2.2,3.041,2.965,2.965,0,0,0,2.414,3.036,14.434,14.434,0,0,0,2.692-.042c.4-.016.495-.259.46-.636-.038-.411-.009-.828-.009-1.447m.979-17.632a33.676,33.676,0,0,0-3.39.634,3.6,3.6,0,0,0-1.515,5.728,4.827,4.827,0,0,0,5.1,1.54c.417-.112.565-.263.515-.714-.175-1.523-.3-3.051-.452-4.577-.08-.819-.164-1.638-.263-2.612m.216-7.52c-.127-1.41-.287-3.2-.453-4.993-.036-.391-.193-.667-.652-.658a9.878,9.878,0,0,0-4.792,1.259,3.082,3.082,0,0,0-.508,4.893,5.693,5.693,0,0,0,5.512,1.137c.915-.3.912-.308.893-1.638m-5.154,38.7c.007-.067.013-.133.019-.2-.372-.318-.771-.61-1.111-.96a3.7,3.7,0,0,1,1.287-6.2,19.746,19.746,0,0,1,3.655-.9,1.157,1.157,0,0,1,1.453,1.138c.065.472.08.95.142,1.422.142,1.088.287,2.176.453,3.259.05.324.162.6.619.417a3.5,3.5,0,0,0,2.239-3.815,7.563,7.563,0,0,0-.338-1.384,3.976,3.976,0,0,0-4.358-2.809q-2.273.263-4.537.625c-2.279.37-4.538.917-6.831,1.151-3.506.356-7.032.514-10.552.749a1.456,1.456,0,0,0-1.544,1.17,12.3,12.3,0,0,0-.4,1.755,5.1,5.1,0,0,0,3.064,5.364,11.544,11.544,0,0,0,5.47.746c2.194-.238,4.381-.538,6.568-.834,1.568-.212,3.132-.461,4.7-.694m-1.109-10.528c-.413-.518-.716-.881-1-1.259-1.689-2.25-.966-5.733,1.578-6.782a19.185,19.185,0,0,1,4.4-.92c.656-.1,1.033.269,1.159.955a14.72,14.72,0,0,1,.169,1.792c.086,1.485.155,2.972.232,4.466a6.353,6.353,0,0,0,2.9-1.666,2.6,2.6,0,0,0,.564-.8,5.3,5.3,0,0,0-1.707-6.244,3,3,0,0,0-2.259-.646c-2.131.245-4.263.493-6.4.7a139.639,139.639,0,0,1-17.241.832,13.349,13.349,0,0,1-4.4-.6c-.957-.356-1.187-.253-1.64.684a9.827,9.827,0,0,0-.892,5.08,5.623,5.623,0,0,0,3.866,5.184,10.368,10.368,0,0,0,4.735.671c4.238-.31,8.47-.714,12.7-1.092,1.02-.091,2.038-.226,3.227-.36m8.282-13.446a4.154,4.154,0,0,0,.441,0c2.295-.286,3.641-2.1,3.465-4.633a6.9,6.9,0,0,0-5.055-6.574,5.464,5.464,0,0,0-2.175-.254c-2.1.195-4.177.536-6.27.753a62.6,62.6,0,0,1-11.3.559c-2.221-.172-4.443-.34-6.663-.54a7.7,7.7,0,0,1-3.9-1.266.61.61,0,0,0-.927.153,17.167,17.167,0,0,0-1.533,2.519,10.886,10.886,0,0,0-.224,6.962,4.83,4.83,0,0,0,2.364,3.361,10.758,10.758,0,0,0,5.467,1.382q7.669-.3,15.336-.679c1.307-.064,2.609-.227,4.1-.361-.438-.409-.742-.676-1.028-.961a5.167,5.167,0,0,1-1.275-5.286,4.215,4.215,0,0,1,3.579-3.2c1.113-.213,2.241-.364,3.369-.488.943-.1,1.281.189,1.393,1.144.134,1.154.218,2.312.347,3.464.148,1.313.322,2.622.487,3.948m2.089,21.867c.293-.021.538-.026.781-.055,4.3-.533,8.6-1.044,12.9-1.61,7.43-.977,14.819-2.192,22.143-3.8a5.508,5.508,0,0,0,3.572-2.433,29.963,29.963,0,0,0,4.217-10.75,58.811,58.811,0,0,0,1.02-13.787,55.815,55.815,0,0,0-2.878-16.526,26.344,26.344,0,0,0-4.958-9.243,1.46,1.46,0,0,0-1.219-.576c-1.258.023-2.52.05-3.775-.024-2.182-.129-4.36-.323-6.537-.509a10.523,10.523,0,0,1-5.6-2.093,14.244,14.244,0,0,1-4.537-6.91,43.316,43.316,0,0,1-2.283-13.425c-.118-4.64-.2-9.281-.284-13.921a19.934,19.934,0,0,0-1.535-7.38,4.466,4.466,0,0,0-3.488-2.939,5.911,5.911,0,0,0-3.8.184,10.49,10.49,0,0,0-3.221,2.024,14.851,14.851,0,0,0-3.687,6.119,60.128,60.128,0,0,0-1.856,8.291,155.386,155.386,0,0,0-1.19,19.1c-.051,3.251.109,6.5.19,9.756.047,1.923-.1,2.037-2.033,2.267-5.265.628-10.53,1.261-15.782,1.989-1.935.269-3.823.874-5.754,1.194a6.226,6.226,0,0,0-2.821,1.163c-.461.349-.924.7-1.393,1.036-3.793,2.751-5.687,9.418-3.294,13.588a9.254,9.254,0,0,0,2.335,3.094c.544.4,1.219.617,1.761,1.016a6.222,6.222,0,0,0,3.286,1.15q4.617.379,9.235.751a2.378,2.378,0,0,0,.37-.022c2-.155,3.993-.3,5.987-.472,1.243-.107,2.481-.261,3.721-.393a.754.754,0,0,0-.335-.423,4.559,4.559,0,0,1-1.9-5.179,4.855,4.855,0,0,1,3.6-3.278,27.121,27.121,0,0,1,4.143-.65c1.066-.112,1.451.237,1.7,1.278a5.387,5.387,0,0,1,.126.735c.127,1.32.244,2.641.367,3.962.039.412.019.96.523.991a1.45,1.45,0,0,0,.987-.544,5.768,5.768,0,0,0,.987-5.518,5.952,5.952,0,0,0-4.719-4.267,28.025,28.025,0,0,0-6.881-.645,62.5,62.5,0,0,0-11.465.86c-.682.126-1.374.193-2.047.286-.305-1.044-.176-1.3.784-1.468,1.626-.285,3.249-.631,4.89-.774,2.732-.238,5.477-.309,8.214-.5a19.1,19.1,0,0,1,8.237,1.371,7.448,7.448,0,0,1,2.24,12.519c-.413.364-.828.725-1.288,1.128.207.122.349.2.482.283a19.213,19.213,0,0,1,2.564,1.716,8.045,8.045,0,0,1,2.472,6.7,5.208,5.208,0,0,1-3.588,4.951c-.3.115-.594.246-1.036.431a7.353,7.353,0,0,1,2.857,5.97c-.116,2.569-1.61,4.109-3.765,5.164,3.127,2.464,4.344,5.306,2.262,9.055m-29.918-5.665c-.694-.306-1.5-.666-2.315-1.021a6.523,6.523,0,0,1-4.18-6.487,11.151,11.151,0,0,1,1.31-5.733.733.733,0,0,0-.208-1.087c-1.919-1.646-2.555-3.878-2.822-6.295a11.163,11.163,0,0,1,2.536-8.408c-.209-.251-.415-.524-.645-.774a11.659,11.659,0,0,1-2.892-4.941A12.734,12.734,0,0,1,283.1,174.3a14.65,14.65,0,0,1,8.806-4.911,127.858,127.858,0,0,1,14.592-2c1.521-.132,3.039-.306,4.554-.5,1.007-.126,1.094-.271,1.076-1.272-.059-3.233-.223-6.468-.138-9.7.126-4.742.4-9.481.67-14.217a57.254,57.254,0,0,1,1.721-11.351,23.73,23.73,0,0,1,2.411-5.709,14.189,14.189,0,0,1,4.076-4.368,7.808,7.808,0,0,1,6.785-1.082,5.518,5.518,0,0,1,4.053,3.22,22.883,22.883,0,0,1,1.79,6.761c.479,3.972.123,7.951.24,11.926.124,4.249.175,8.515,1.255,12.653a40.083,40.083,0,0,0,2.22,6.509,8.981,8.981,0,0,0,5.946,5.053,30.633,30.633,0,0,0,8.326,1.029c1.259.011,2.518,0,3.778-.013a3.238,3.238,0,0,1,2.827,1.315,31.749,31.749,0,0,1,4.968,9.952,61.387,61.387,0,0,1,2.744,17.562,52.456,52.456,0,0,1-2.668,18.229,24.887,24.887,0,0,1-3.938,7.082,4.772,4.772,0,0,1-2.7,1.815c-5.372,1.376-10.849,2.185-16.311,3.029-6.913,1.069-13.853,1.954-20.794,2.833a54.21,54.21,0,0,0-5.988,1.264,74.226,74.226,0,0,1-10.346,1.867,31.451,31.451,0,0,1-5.48.417,13.156,13.156,0,0,1-5.354-1.384,6.312,6.312,0,0,1-3.148-6.215c.151-1.056.391-2.1.605-3.23" transform="translate(0 0)" fill="#fefaf5"/>
    <path id="Path_12971" data-name="Path 12971" d="M330.125,295.8c-6.923-.042-13.846-.166-20.742-.827a50.7,50.7,0,0,1-10.925-1.927,9.2,9.2,0,0,1-2.168-1.027,1.255,1.255,0,0,1-.051-2.255,9.628,9.628,0,0,1,2.358-1.183,45.165,45.165,0,0,1,9.115-1.833,171.719,171.719,0,0,1,24.211-.953c5.821.1,11.642.37,17.45.738a67.179,67.179,0,0,1,13.805,2.046,12.217,12.217,0,0,1,2.79,1.151c1.341.77,1.3,1.7-.051,2.457a13.755,13.755,0,0,1-4.878,1.561c-3.774.512-7.552,1.066-11.348,1.313-6.511.422-13.037.621-19.558.913,0-.058-.005-.116-.008-.175" transform="translate(-4.292 -43.038)" fill="#fefaf5"/>
    <path id="Path_12972" data-name="Path 12972" d="M335.4,141.885a4.7,4.7,0,0,1-4.689-3.6,10.879,10.879,0,0,1-.335-1.287,1.733,1.733,0,0,1,.035-.882.79.79,0,0,1,.571-.411c.162-.011.4.23.5.414a2.351,2.351,0,0,1,.159.7c.053.277.086.559.156.831a3.471,3.471,0,0,0,4.93,2.577,7.863,7.863,0,0,0,3.623-3.27,3.075,3.075,0,0,1,.635-.793.754.754,0,0,1,.69.015.659.659,0,0,1,.175.617c-1.253,2.727-3.178,4.643-6.29,5.076a.925.925,0,0,1-.16.009" transform="translate(-12.927 -4.635)" fill="#fefaf5"/>
    <path id="Path_12973" data-name="Path 12973" d="M336.94,129.694a2.012,2.012,0,0,1-1,1.65.785.785,0,0,1-1.288-.527,3.143,3.143,0,0,1,.4-2.258.859.859,0,0,1,1.1-.361c.546.167.8.592.777,1.5" transform="translate(-14.133 -2.548)" fill="#fefaf5"/>
    <path id="Path_12974" data-name="Path 12974" d="M339.979,130.629c.15-.411.273-.834.457-1.229a.916.916,0,0,1,1.14-.561c.557.143.986.477.968,1.08a3.465,3.465,0,0,1-.33,1.325,1.1,1.1,0,0,1-1.34.671c-.535-.13-.816-.562-.895-1.285" transform="translate(-15.527 -2.731)" fill="#fefaf5"/>
  </g>
</svg>
