<svg xmlns="http://www.w3.org/2000/svg" width="49" height="48.002" viewBox="0 0 49 48.002">
  <path id="Subtraction_56" data-name="Subtraction 56" d="M16630,8606h-13a17.99,17.99,0,0,1-18-18v-12a17.982,17.982,0,0,1,18-18h13a17.99,17.99,0,0,1,18,18v12a17.982,17.982,0,0,1-18,18Zm-9.7-31.584a2,2,0,0,0-2,2v11.16a2,2,0,0,0,2,2,1.972,1.972,0,0,0,.979-.259l9.918-5.578a2,2,0,0,0,0-3.488l-9.918-5.578A1.984,1.984,0,0,0,16620.3,8574.417Z" transform="translate(-16599 -8557.999)" fill="#fefaf5" opacity="0.9"/>
</svg>
