<svg xmlns="http://www.w3.org/2000/svg" width="25.132" height="25.103" viewBox="0 0 25.132 25.103">
  <g id="Group_3006" data-name="Group 3006" transform="translate(19506.723 8887.965)">
    <path id="Path_13284" data-name="Path 13284" d="M236.211,164c-.834-.852-1.81-1.551-2.708-2.33-1.661-1.442-3.041-3.122-4.776-4.484,2.685-3.593,1.771-8.073-1.276-11.419-4.105-4.507-9.354-2.621-12.741,1.5-3.309,3.782-2.451,8.627,1.114,11.929,2.717,2.518,7.022,2.257,10.152.434l.006.007c1.768,1.8,3.4,3.729,5.224,5.479,1.113,1.067,3.3,3.45,5.1,2.862,2.26-.739,1.007-2.859-.09-3.98ZM217.2,158.462c-3.479-2.44-4.6-7.252-1.72-10.548,3.007-3.659,6.759-4.734,10.557-1.517,3.064,2.594,4.317,7.269,1.643,10.543a8.126,8.126,0,0,1-10.48,1.523Zm18.044,8.022c-3.234-1.56-5.625-5.1-8.08-7.677.214-.172.417-.351.612-.54,2.058,1.6,3.7,3.62,5.716,5.262a24.672,24.672,0,0,1,2.07,1.852c.795.813,1,1.738-.318,1.1Z" transform="translate(-19719.256 -9031.018)" fill="#1b2429" stroke="#1b2429" stroke-width="0.2"/>
    <path id="Path_13285" data-name="Path 13285" d="M288.512,177.476a5.739,5.739,0,0,0-6.92-4.5c-.524.131-.812,1.216-.09,1.036A5.055,5.055,0,0,1,287.518,178c.156.66,1.116-.009.995-.524Z" transform="translate(-19780.934 -9058.418)" fill="#1b2429"/>
  </g>
</svg>
