<svg xmlns="http://www.w3.org/2000/svg" width="153.903" height="113.761" viewBox="0 0 153.903 113.761">
  <g id="Group_2832" data-name="Group 2832" transform="translate(-915 -467.239)">
    <rect id="Rectangle_1088" data-name="Rectangle 1088" width="52" height="6" transform="translate(966 562)" fill="#fff"/>
    <g id="Group_2831" data-name="Group 2831" transform="translate(359.787 147.435)">
      <path id="Path_13117" data-name="Path 13117" d="M684.04,419.266q-8.659-.039-17.319-.064c-1.781-.006-3.562-.007-5.343-.017-.338,0-.675-.029-1.135-.051,0-1.155-.022-2.187.008-3.218.019-.646.252-.852.923-.874.774-.026,1.551-.016,2.326-.018q10.384-.019,20.766-.043a2.734,2.734,0,0,1,1.69.487c.889.631,1.826,1.194,2.746,1.781.273.176.55.358.508.731s-.384.472-.681.571a13.86,13.86,0,0,1-4.49.714m.672,11.036a.97.97,0,0,1-1.184-.594c-.084-.181-.141-.375-.207-.564q-1.116-3.209-2.227-6.418a4.6,4.6,0,0,1-.118-.628h2.912a3.394,3.394,0,0,1,.2.541q.6,3.077,1.188,6.16a3.4,3.4,0,0,1,.07.424.931.931,0,0,1-.637,1.08m-5.063-2.659c-.844-1.8-1.686-3.594-2.562-5.458.5-.231.8-.17.941.241.6,1.715,1.186,3.436,1.777,5.154Zm-22.2-8.651c-.749.2-49.491.032-50.431-.162,0-.97-.023-1.965.011-2.958a.8.8,0,0,1,.8-.766,5.479,5.479,0,0,1,.689-.021l47.333-.04c1.555,0,1.6.047,1.6,1.6,0,.8,0,1.592,0,2.351m-66.469-6.706c-2.672,0-5.345-.077-8.016-.066a5.266,5.266,0,0,1-4.951-3.263c-.347-.672-.2-.856.567-.852q10.345.051,20.689.1c3.85.022,7.7.082,11.549.085,3.218,0,6.435-.051,9.653-.078.313,0,.626,0,1.042,0a5.436,5.436,0,0,0,2.961,4.007,6.947,6.947,0,0,1-.734.093q-16.38-.008-32.76-.025m13.222,6.656c-9.288-.041-18.449-.075-27.608-.183-.125,0-.247-.11-.486-.222a4.9,4.9,0,0,1,.467-.626c1.024-.966,2.069-1.911,3.089-2.882a1.122,1.122,0,0,1,1.087-.3,14.175,14.175,0,0,0,2.392.255c6.44.047,12.878.066,19.316.092,1.588.007,1.739.15,1.744,1.712,0,.681,0,1.363,0,2.157M586.7,427.5l-.137-.049a3.437,3.437,0,0,1,.084-.375c.545-1.6,1.087-3.194,1.644-4.787.215-.615.247-.616,1.051-.442-.888,1.9-1.765,3.778-2.641,5.653m-1.423-5.049q-1.192,3.458-2.4,6.909a3.227,3.227,0,0,1-.152.4.97.97,0,0,1-1.138.545.889.889,0,0,1-.663-1.058c.1-.681.261-1.35.388-2.027.311-1.662.616-3.325.93-4.986a4.478,4.478,0,0,1,.161-.5h3.049c-.071.291-.106.513-.178.722m-11.315-7.305a24.213,24.213,0,0,1-4.082-3.694,34.339,34.339,0,0,1-6.438-11.124,50.211,50.211,0,0,1-2.5-10.2,2.031,2.031,0,0,1,.833-2.09q6.131-4.89,12.231-9.823a6.074,6.074,0,0,0,.84-.737,9.057,9.057,0,0,0,.678-1.1,32.791,32.791,0,0,0,6.912,15.062c-.181.228-.327.434-.5.617q-3.264,3.557-6.537,7.1a5.786,5.786,0,0,0-1.483,2.585,4.08,4.08,0,0,0-.16,1.1,17.059,17.059,0,0,0,1.961,7.7,19.913,19.913,0,0,0,1.2,1.782,1,1,0,0,1-.1,1.526c-.425.427-.867.84-1.323,1.234a1,1,0,0,1-1.534.062m-4.188.456a2.574,2.574,0,0,1-.348-.188,28,28,0,0,1-9.511-11.689,24.784,24.784,0,0,1-1.928-9.827,8,8,0,0,1,.114-1.113,3.6,3.6,0,0,1,.233-.591c.108.424.181.653.225.889a45.715,45.715,0,0,0,5.316,14.856,31.7,31.7,0,0,0,5.571,7.1,3.465,3.465,0,0,0,.5.335Zm-.94-54.571a21.571,21.571,0,0,1,.076-4.986,6.264,6.264,0,0,1,3.293-4.594c.805-.443,1.6-.911,2.4-1.36.245-.139.5-.25.808-.4a12.767,12.767,0,0,0,4.6,3.164,5.252,5.252,0,0,1,2.4,2.381,3.023,3.023,0,0,1,.114.354,4.631,4.631,0,0,1-.565-.207c-.892-.465-1.769-.958-2.67-1.4a3.384,3.384,0,0,0-.849-.174c-.043.06-.084.122-.126.184a2.6,2.6,0,0,0,.353.609c.387.383.805.737,1.228,1.08,2.659,2.149,5.351,4.258,7.972,6.452a10.815,10.815,0,0,1,3.178,4.236,10.671,10.671,0,0,1,.745,3.875,21.524,21.524,0,0,1-5.436,14.867c-.129.151-.285.277-.509.491-.145-.259-.27-.465-.383-.678-1.3-2.495-2.588-5-3.919-7.48a19.907,19.907,0,0,0-5.413-6.072q-1.385-1.1-2.788-2.172a10.647,10.647,0,0,1-4.509-8.17m8.254-32.637c.193-.351.428-.682.634-1.028a10.614,10.614,0,0,1,7.858-5.176,17.625,17.625,0,0,1,10.261,1.453,8.555,8.555,0,0,1,.827.46c.04.023.049.1.073.147-.021.049-.038.137-.065.14-.967.093-1.935.22-2.9.247a3.313,3.313,0,0,1-1.052-.342c-1.22-.424-2.437-.855-3.66-1.265a5.457,5.457,0,0,0-.81-.143l-.086.174a2.018,2.018,0,0,0,.382.317c.749.364,1.511.7,2.26,1.065a6.935,6.935,0,0,1,.714.457c-.214.49-.637.446-.965.571a2.371,2.371,0,0,1-2.427-.336,10.97,10.97,0,0,0-1.9-1.007,5.946,5.946,0,0,0-.952-.277c-.032.056-.062.111-.093.166a2.975,2.975,0,0,0,.357.375c.6.445,1.228.851,1.8,1.32.451.366.394.611-.122.9a1.62,1.62,0,0,1-2.319-.283c-.43-.383-.848-.777-1.286-1.148a3.755,3.755,0,0,0-.534-.32l-.165.148c.152.25.3.5.46.746.292.427.615.834.892,1.269a.771.771,0,0,1-.235,1.245,11.921,11.921,0,0,1-1.01.66c-.579.338-.781.281-1.055-.35-.251-.578-.445-1.183-.671-1.771-.078-.2-.181-.387-.362-.768a2.329,2.329,0,0,0-.161.626c.111.767.214,1.538.384,2.293a1.765,1.765,0,0,1-.671,1.98c-.408.31-.777.667-1.278,1.1a2.224,2.224,0,0,1-.266-.66c0-.8.04-1.6.073-2.407.01-.244.044-.489.069-.734l-.281-.08c-.121.269-.263.531-.36.808a11.579,11.579,0,0,0-.579,3.82,2.121,2.121,0,0,1-.506,1.416c-.487.6-.933,1.239-1.411,1.851a6.5,6.5,0,0,1-.6.565c-.062-.446-.117-.712-.133-.982a13.2,13.2,0,0,1,1.873-7.244m22.465-.624a6.916,6.916,0,0,1,1.384,2.746c.206.807-.025,1.078-.842,1.04-.487-.021-.973-.069-1.46-.092a1,1,0,0,1-1-.687,9.889,9.889,0,0,0-1.992-3.583c-.049-.056-.042-.158-.075-.3a3.139,3.139,0,0,1,3.985.873m1-1.059c.867.209,1.8.375,2.259,1.282.489.967.844,2,1.254,3.008a.685.685,0,0,1,.033.167c.095.682-.03,1.081-.381,1.214a1.38,1.38,0,0,1-1.374-.676,1.519,1.519,0,0,1-.155-.487,8.361,8.361,0,0,0-1.637-4.02,1.28,1.28,0,0,1-.128-.3l.129-.182m-9.413.958c.681-.219,1.38-.381,2.123-.58a4.886,4.886,0,0,1,.991.462,6.182,6.182,0,0,1,2.134,3.065c.21.65.052.966-.6,1.19-.543.188-1.1.346-1.652.493a.816.816,0,0,1-1.088-.44,16.779,16.779,0,0,0-2.191-3.292c-.365-.438-.265-.72.281-.9m.674,4.263a3.7,3.7,0,0,1,.28.705c-.148.211-.258.508-.469.642-.773.491-1.568.947-2.375,1.379-.409.22-.7.1-1-.375s-.574-.992-.86-1.487c-.358-.62-.733-1.229-1.072-1.859-.354-.656-.266-.991.361-1.354.5-.287,1.013-.537,1.531-.778a1.209,1.209,0,0,1,1.618.335c.685.912,1.336,1.852,1.984,2.792m-9.653,2.135a1.133,1.133,0,0,1,.269-1.422,19.033,19.033,0,0,1,1.744-1.405.668.668,0,0,1,1.1.2c.733,1.2,1.423,2.43,2.123,3.653a3.027,3.027,0,0,1,.161.5,4.312,4.312,0,0,1-.439.738c-.55.626-1.129,1.225-1.707,1.826-.45.471-.774.487-1.1-.071-.757-1.317-1.46-2.668-2.157-4.019m.066,9.471c-.065.126-.143.246-.248.427a4.3,4.3,0,0,1-.609-.526,14.227,14.227,0,0,1-2.559-5.21,2.4,2.4,0,0,1,.5-2.25c.316-.37.607-.764.937-1.121.46-.5.73-.453,1.02.145.325.67.594,1.371.961,2.017.409.719.888,1.4,1.363,2.082a1.258,1.258,0,0,1,.184,1.367c-.508,1.026-1.026,2.049-1.544,3.069m-6.091-2.338a5.769,5.769,0,0,1,1.516-2.532c.439,1.091.848,2.1,1.272,3.157-.98-.221-1.88-.423-2.788-.626m.133,3.122a1.553,1.553,0,0,1,2.313-.7,5.982,5.982,0,0,1,1.346,1.18,10.058,10.058,0,0,1,2.393,5.328,2.686,2.686,0,0,1,.036.513c-.03.718-.392,1.021-1.069.79a9.456,9.456,0,0,1-4.211-2.562,4.988,4.988,0,0,1-1.2-3.3,7.041,7.041,0,0,1,.391-1.249m29.06-3.989c.15.571.055.725-.539.843-.757.152-1.529.244-2.3.333a1.029,1.029,0,0,1-1.177-.788c-.228-.682-.443-1.367-.668-2.047-.085-.255-.182-.5-.323-.892-.108.226-.177.3-.167.36.183,1.161.325,2.33.58,3.474a1.341,1.341,0,0,0,1.349,1.026,10.8,10.8,0,0,0,1.881-.115c.939-.13,1.865-.347,2.8-.477a1.555,1.555,0,0,1,1.846,1.47,2.774,2.774,0,0,1-1.172,2.545,5.578,5.578,0,0,1-3.2,1.146,17.718,17.718,0,0,1-2.828-.078,2.3,2.3,0,0,1-1.076-.488,1.288,1.288,0,0,1-.36-1.883c.1-.17.2-.336.314-.531a1.525,1.525,0,0,0-1.4,1.033c-.279.626.037,1.175.243,1.858a3.062,3.062,0,0,1-.741.148,16.41,16.41,0,0,1-2.309-.24,3.115,3.115,0,0,0-3.588,1.563c-.332.537-.624,1.1-.925,1.653a1.554,1.554,0,0,1-1.99.9,5.577,5.577,0,0,1-3.9-3.236,1.189,1.189,0,0,1,.195-1.493,3.674,3.674,0,0,0,.781-1.955c.206-.993.563-1.955.692-2.976.037-.3.327-.553.4-.852a2.72,2.72,0,0,0,.081-1.175,1.487,1.487,0,0,1,.5-1.463,14.548,14.548,0,0,1,4.435-3.231,34.476,34.476,0,0,1,3.764-1.479,8.925,8.925,0,0,1,4.689-.147,3.045,3.045,0,0,1,2.119,1.868,6.563,6.563,0,0,0-.757.049,3.2,3.2,0,0,0-.906.246c-.152.08-.209.343-.307.523a1.919,1.919,0,0,0,.517.174,2.313,2.313,0,0,0,.5-.133,1.542,1.542,0,0,1,1.972,1.074c.372,1.117.683,2.254.981,3.393m4.849,4.387c.073-.276.126-.557.209-.923.354,0,.637-.01.919,0,1.666.067,3.33.156,4.995.206a4.069,4.069,0,0,1,4.044,2.914,10.246,10.246,0,0,1,.576,3.026,30.527,30.527,0,0,1-1.1,9.207c-.107.375-.261.735-.425,1.192a42.043,42.043,0,0,0-8.93-3.741c.445-2.578,1.684-4.8,2.441-7.168l-.221-.119a9.047,9.047,0,0,0-.829,1.142c-.886,1.707-1.741,3.43-2.595,5.154-.3.6-.283.608-.995.447a1.508,1.508,0,0,1-.026-.394,22,22,0,0,0-.071-6.013c-.015-.172-.03-.344-.058-.515a1.853,1.853,0,0,1,.749-2.149,3.758,3.758,0,0,0,1.32-2.268m-4.164,15.9c.535,1.618-.253,2.724-1.736,2.656a4.52,4.52,0,0,1-2.088-.6c1.352-.66,2.79-.885,3.824-2.057m-3.429-7.205a6.11,6.11,0,0,1-2.986.021,20.413,20.413,0,0,1-2.115-.7c-.18-.062-.353-.138-.682-.269a5.78,5.78,0,0,0,2.316,3.157,1.225,1.225,0,0,1-1.174.425c-.962-.154-1.931-.292-2.872-.535-.978-.253-1.144-.7-.8-1.677.181-.513.317-1.04.477-1.561a9.119,9.119,0,0,1,.291-.9,1.1,1.1,0,0,1,1.5-.705,14.2,14.2,0,0,0,6.016.77c.419-.04.836-.1,1.309-.155.133,1.207-.273,1.852-1.283,2.13m-11.628,40.6c-.644-.7-.637-.713-.134-1.531.281-.457.587-.9.934-1.427.3.3.521.512.731.738a52.934,52.934,0,0,0,11.453,9.473,27.688,27.688,0,0,0,10.693,3.893,2.582,2.582,0,0,1,.318.08l.056.232c-.605.137-1.2.321-1.817.4a15.461,15.461,0,0,1-6.289-.755,24.372,24.372,0,0,1-7.03-3.4,52.01,52.01,0,0,1-8.918-7.7m-3.75-6.21c.268-.366.587-.694.973-1.135l2.307,2.847c-.475.736-.919,1.422-1.4,2.167a12.089,12.089,0,0,1-1.975-3.332.666.666,0,0,1,.1-.547m1.39,15.916c.936.432,1.91.784,2.866,1.173.206.084.412.172.811.338a4.624,4.624,0,0,1-.718.15q-6.284-.027-12.569-.066a2.213,2.213,0,0,1-2.194-1.372,2.313,2.313,0,0,1,.446-2.636q1.733-1.916,3.495-3.8a3.5,3.5,0,0,1,.563-.383,2.358,2.358,0,0,1,.222.5,4.13,4.13,0,0,0,1.466,2.464,21.263,21.263,0,0,0,5.612,3.635m36.624-37.21a1.7,1.7,0,0,1,.182.243,15.526,15.526,0,0,0-1.435,1.2c-1.68,1.771-3.366,3.54-4.978,5.372-2.525,2.869-5,5.786-7.482,8.691-.424.5-.8,1.032-1.238,1.592a1.777,1.777,0,0,0,1.792-.064,9.809,9.809,0,0,0,3.116-2.276c1.457-1.586,2.831-3.249,4.28-4.844,1.8-1.977,3.625-3.926,5.461-5.866a13.8,13.8,0,0,1,1.492-1.306,8.171,8.171,0,0,1,10.142-.18c.605.438,1.239.834,1.869,1.236a1.22,1.22,0,0,1,.593,1.476,18.763,18.763,0,0,1-.627,1.968q-.949,2.311-1.982,4.587c-.329.723-.523.746-1.179.279-.608-.434-1.194-.9-1.793-1.343a7.932,7.932,0,0,0-8.1-.844,8.126,8.126,0,0,0-4.549,3.885,8.261,8.261,0,0,0-.87,4.344c.134,2.065.314,4.127.5,6.188a6.525,6.525,0,0,1-.154,2.379,5.6,5.6,0,0,0-.022,2.128c.17,1.338.416,2.669.664,4a1.3,1.3,0,0,1-.2,1.059c-.247.353-.467.726-.731,1.065a4.769,4.769,0,0,1-3.8,1.895,15.52,15.52,0,0,1-6.855-1.46,50.5,50.5,0,0,1-16.053-11.429c-.2-.207-.376-.431-.605-.694a7.052,7.052,0,0,1,.384-.66,36.457,36.457,0,0,1,5.192-6.087c.513-.447.609-.858.362-1.28a.878.878,0,0,0-1.188-.366,4.118,4.118,0,0,0-.822.617,38.364,38.364,0,0,0-4.645,5.431c-.167.224-.349.439-.519.653a6.7,6.7,0,0,1-2.088-2.879c.792-1.4,1.641-2.732,2.333-4.147a24.857,24.857,0,0,0,2.544-9.954,11.35,11.35,0,0,0-2.154-7.555c-.31-.413-.572-.862-.852-1.3a.977.977,0,0,1-.052-.252,5.815,5.815,0,0,1,.645.122,21.016,21.016,0,0,0,6.017,1,3.88,3.88,0,0,1,1.22.361c1.265.468,2.518.971,3.79,1.417a5.481,5.481,0,0,0,1.354.243,3.535,3.535,0,0,0,3.922-3.445,5.125,5.125,0,0,0-.55-2.585,1.042,1.042,0,0,1,.137-1.264,47.543,47.543,0,0,1,8.621,3.6,49.02,49.02,0,0,0-9.937,7.8,44.825,44.825,0,0,0-7.558,10.339c1.309-.085,2.352-.15,3.124-1.2,1.411-1.921,2.82-3.852,4.363-5.666a48.919,48.919,0,0,1,11.536-9.77,1.806,1.806,0,0,1,1.942-.089,23.852,23.852,0,0,1,5.435,3.622m23.243,9.2a18.282,18.282,0,0,0,1.84-1.288,17.8,17.8,0,0,0,1.486-1.7,3.2,3.2,0,0,1-3.326,2.987m-5.3,5.744a10.762,10.762,0,0,1-1.022,2.307,1.069,1.069,0,0,1-1.073.414,4.584,4.584,0,0,1-3.09-1.494,2.04,2.04,0,0,1-.373-1.1,2.555,2.555,0,0,1,.561-1.582l5,1.454m-2.176-9.034c.089-.6.173-1.168.276-1.867a10.528,10.528,0,0,1,3.609.755.916.916,0,0,1,.6.775c.038.5.01,1.01.01,1.647l-4.5-1.309m4.14,3.1c-.093.406-.151.734-.244,1.052-.244.826-.508,1.645-.759,2.469-.1.336-.258.557-.671.494a17.5,17.5,0,0,1-4.554-1.308c.516-1.387.993-2.668,1.512-4.062l4.716,1.354M686.99,405.3c-.229.019-.46.012-.69.012H671.294v.051H656.286c-1.434,0-1.559-.165-1.21-1.553a12.208,12.208,0,0,0,.32-4.277,3.024,3.024,0,0,0-4.317-2.625c-1.166.475-2.276,1.092-3.4,1.67a22.62,22.62,0,0,1-5.43,2.169,15.269,15.269,0,0,1-2.559.224,1.214,1.214,0,0,1-1.072-.62,6.675,6.675,0,0,1-1.037-2.441c-.076-.368-.059-.694.321-.885a1.77,1.77,0,0,0,.928-1.957q-.231-2.62-.468-5.238c-.01-.115-.036-.228-.048-.342-.129-1.113.069-1.349,1.18-1.357,1.235-.01,2.473.018,3.708-.012a1.242,1.242,0,0,1,1.122.607,12.675,12.675,0,0,0,1.7,1.813,4.175,4.175,0,0,0,4.755.616,6.28,6.28,0,0,0,3.172-2.545c.265-.471.654-.483,1.1-.483q4.615.008,9.228,0c2.7,0,5.4.015,8.108-.01a3.358,3.358,0,0,1,2.412.943q6.144,5.613,12.311,11.2a4.552,4.552,0,0,0,.379.351,3.065,3.065,0,0,1,1.037,3.33,1.5,1.5,0,0,1-1.538,1.357m-49.558-4.889a20.053,20.053,0,0,0,1.542,1.754,17.672,17.672,0,0,0,1.8,1.277c-1.5.259-3.215-1.249-3.344-3.031m1.3,11.239c1.206-.023,2.414.03,3.621.023a15.277,15.277,0,0,0,6.685-1.433,15.1,15.1,0,0,0,2.489-1.524,2.544,2.544,0,0,1,1.654-.546c4.513.007,9.026-.007,13.538-.015q9.486-.019,18.97-.038a5.993,5.993,0,0,1,1.031.043c.431.077.623.4.4.762-.6.974-1.24,1.932-1.921,2.855a1.529,1.529,0,0,1-1.349.423c-2.1-.007-4.2,0-6.294,0q-16.727-.041-33.456-.088c-2.414-.008-4.827-.032-7.242-.051-.225,0-.451-.025-.676-.038l0-.188c.853-.063,1.7-.165,2.558-.18M635.1,389.932a.667.667,0,0,1,.888.585c.224,1.328.408,2.663.569,4a.713.713,0,0,1-.276.563c-.624.391-1.282.729-2.077,1.168l-1.527-5.187a9.888,9.888,0,0,1,2.423-1.129m-8.286,8.759a3.948,3.948,0,0,1-.512.193c-.753.172-1.508.343-2.27.483-.552.1-.7.033-.805-.5-.216-1.066-.412-2.141-.535-3.219-.081-.708.165-.988.845-1.191.593-.177,1.2-.325,1.766-.479.519,1.615,1.006,3.135,1.511,4.709m5.674-1.789a21.462,21.462,0,0,1-3.758,1.357c-.287-.7-.59-1.339-.814-2.007-.254-.76-.44-1.544-.65-2.318-.091-.333-.071-.629.314-.779,1.094-.424,2.184-.852,3.413-1.331l1.5,5.078m-6.3-5.627c-1.072.3-2.161.536-3.343.827-.066-.328-.114-.491-.13-.657-.189-1.913-.391-3.826-.554-5.742a8.015,8.015,0,0,1,.911-4.746,4.159,4.159,0,0,1,1.515-1.614,18.952,18.952,0,0,1,2.121-1.131,5.105,5.105,0,0,1,4.568.22,6.282,6.282,0,0,1,3.712,5.5c.038.8.1,1.605.192,2.4a1.12,1.12,0,0,1-.613,1.2,31.473,31.473,0,0,1-8.378,3.747m-3.662-30.732c.263-1.645.487-3.3.727-4.948.1-.7.291-.874,1.007-.908.229-.011.46,0,.69,0q27.943,0,55.885.012a6.806,6.806,0,0,1,2.112.312A3.82,3.82,0,0,1,685.7,358.6c.114,1.719.134,3.448.118,5.172q-.037,4.1-.188,8.192c-.059,1.652.108,1.21-1.154,2.038a32.793,32.793,0,0,0-5.565,4.477,9.717,9.717,0,0,0-2.119,3.016,2.713,2.713,0,0,0-.155,1.917c.406-.392.715-.683,1.017-.981a47.775,47.775,0,0,1,6.234-5.43c.542-.375,1.118-.7,1.688-1.036a1.887,1.887,0,0,1,1.9-.058q7.795,3.884,15.586,7.771a3.806,3.806,0,0,1,1.736,1.73,13.015,13.015,0,0,1,.638,10.77,25.72,25.72,0,0,1-2.366,4.3c-2.368,4.008-4.7,8.038-7.049,12.059a13.5,13.5,0,0,1-2.606,3.2c-.639.58-.971.616-1.684.161q-1.525-.974-3.034-1.977c-.726-.483-.823-.9-.346-1.669a24,24,0,0,0,2.523-5.18,12.11,12.11,0,0,0,.714-3.971,5.409,5.409,0,0,0-1.8-4.138q-5.073-4.608-10.127-9.243c-1-.91-2.017-1.8-3-2.718a5.885,5.885,0,0,0-4.226-1.627c-5.347.026-10.695.01-16.042.01h-1.136c.144-.469.224-.794.342-1.1a25.134,25.134,0,0,1,2.456-4.833,21.774,21.774,0,0,0,2.493-5,13.371,13.371,0,0,0,.642-5.527,7.331,7.331,0,0,0-1.5-3.624,14.138,14.138,0,0,0-3.469-3.45,6.183,6.183,0,0,0-1.522-.786,2.862,2.862,0,0,0-3.638,1.623,7.308,7.308,0,0,0-.484,3.043,20.622,20.622,0,0,1-.423,4.368,15.676,15.676,0,0,1-.473,1.564,1.926,1.926,0,0,1-.284.531c-.394.52-.847.484-1.117-.112-.247-.549-.428-1.127-.657-1.684a2.326,2.326,0,0,0-1.611-1.448c-1.808-.453-3.631-.855-5.448-1.279-1.026.259-1.7-.333-2.427-.923a9.132,9.132,0,0,0-4.285-2.109,8.522,8.522,0,0,0-4.1.266,3.4,3.4,0,0,1-3.426-.605c-.98-.748-2.046-1.383-3.087-2.049a1.526,1.526,0,0,1-.722-1.695m65.453,67.079a4.9,4.9,0,0,1-.383-1.887,4.812,4.812,0,0,1,.2-1.367l.01-.032c.023-.075.047-.152.073-.228a5.216,5.216,0,0,1,2.216-2.832c.029-.016.055-.036.082-.054a1.387,1.387,0,0,1,.735-.6c.213-.086.42-.184.627-.287,1.393-.945,2.729-1.969,4.056-3,.541-.8,1.066-1.615,1.556-2.443,2.257-3.812,4-7.943,7.139-10.99.921-1.478,1.862-2.943,2.69-4.471a15.807,15.807,0,0,0,.366-15.217,5.858,5.858,0,0,0-2.617-2.775c-.563-.285-1.088-.645-1.653-.926-4.634-2.3-9.266-4.606-13.915-6.876a1.137,1.137,0,0,1-.757-1.24c.1-3.045.178-6.092.206-9.139.015-1.695,0-3.4-.15-5.082a6.46,6.46,0,0,0-3.69-5.458,8.625,8.625,0,0,0-4.014-.816q-27.6.018-55.2.008c-.287,0-.575.006-.862,0-.911-.025-1.151-.262-1.209-1.2-.028-.458-.032-.919-.066-1.378a10.061,10.061,0,0,0-1.265-4.442,5.812,5.812,0,0,0-5.3-3.237c-2.185.023-4.37-.034-6.555-.073a3.3,3.3,0,0,1-.911-.169c-.6-.188-1.17-.449-1.774-.6-.343-.089-.563-.193-.661-.556a31.257,31.257,0,0,0-2.174-6.209c1.595-1.1,1.45-2.648,1.059-4.206a17.815,17.815,0,0,0-.874-2.429,4.918,4.918,0,0,0-4.014-3.135,2.5,2.5,0,0,1-1.084-.462,18.629,18.629,0,0,0-12.118-4.005c-4.969.1-9.019,1.965-11.765,6.308-2.508,3.968-3.624,8.162-2.452,12.82a2.288,2.288,0,0,1-.027,1.094,3.984,3.984,0,0,0-.119,2.042,21.859,21.859,0,0,1,.58,3.731,13.972,13.972,0,0,0,.306,1.551c-.285.154-.534.29-.783.421-1.2.624-2.411,1.22-3.59,1.877a7.445,7.445,0,0,0-3.4,4.195,16.725,16.725,0,0,0-.538,8.93,12.341,12.341,0,0,0,5.028,8.247,3.092,3.092,0,0,1,1.5,3.322.717.717,0,0,0,0,.172,2.445,2.445,0,0,1-1.118,2.265c-3.338,2.637-6.643,5.316-9.956,7.983-1.074.864-2.165,1.714-3.208,2.615a7.94,7.94,0,0,0-2.894,5.325,22.289,22.289,0,0,0,.184,5.505,28.159,28.159,0,0,0,4.367,11.307,29.951,29.951,0,0,0,3.723,4.549,39.081,39.081,0,0,0,8.083,6.129,9.6,9.6,0,0,0,5.154,1.454q.819-.016,1.638.011c.823.026,1.018.268.888,1.074-.045.284-.1.567-.16.848-.343,1.75-.725,3.491-1.022,5.247a3.742,3.742,0,0,0,4.188,4.318,11.753,11.753,0,0,0,1.938-.419,7.492,7.492,0,0,0,5.04-4.228c.862-1.913,1.782-3.8,2.658-5.707a1.638,1.638,0,0,1,1.684-1.085c.2.008.4,0,.6,0q6.166.033,12.333.063,27.6.1,55.2.2c3.622.014,7.245.038,10.867.029a1.755,1.755,0,0,1,1.807,1.168c.428,1,.921,1.98,1.375,2.973a5.124,5.124,0,0,1,.2.667c-.368,0-.624.012-.88,0-8.185-.431-16.377-.543-24.571-.5-11.588.066-23.169.332-34.732,1.124a106.374,106.374,0,0,0-11.481,1.264,24.432,24.432,0,0,0-2.991.792c-.259.081-.449.39-.668.594.211.211.388.509.644.616a7.525,7.525,0,0,0,1.727.521c2.186.339,4.372.7,6.571.922,6.584.659,13.195.9,19.806,1,6.783.1,13.568.007,20.352.067,7.359.066,14.716.235,22.075.314a115.443,115.443,0,0,0,12.668-.3,3.888,3.888,0,0,0,3.005-1.778,3.948,3.948,0,0,0,.468-3.068,2.757,2.757,0,0,1-.065-.759" transform="translate(0 0)"/>
      <path id="Path_13118" data-name="Path 13118" d="M654.326,356.808a1.42,1.42,0,0,0,1.464-1.382,1.441,1.441,0,1,0-1.464,1.382m1.466,11.716a1.439,1.439,0,1,0-1.487,1.439,1.412,1.412,0,0,0,1.487-1.439m-27.253-13.187a1.448,1.448,0,1,0-1.468,1.47,1.431,1.431,0,0,0,1.468-1.47m16.234,14.626a1.444,1.444,0,1,0,.041-2.887,1.444,1.444,0,1,0-.041,2.887m.01-16.061a1.454,1.454,0,1,0,.022,2.908,1.454,1.454,0,0,0-.022-2.908m13.612,20.05c.406-.392.715-.683,1.017-.981a47.766,47.766,0,0,1,6.234-5.428c.542-.376,1.118-.7,1.688-1.037a1.887,1.887,0,0,1,1.9-.058q7.792,3.884,15.585,7.771a3.809,3.809,0,0,1,1.737,1.73,13.01,13.01,0,0,1,.637,10.77,25.607,25.607,0,0,1-2.364,4.3c-2.368,4.008-4.7,8.038-7.049,12.059a13.5,13.5,0,0,1-2.606,3.2c-.639.58-.972.616-1.684.161q-1.527-.974-3.035-1.976c-.726-.484-.822-.906-.344-1.669a24.11,24.11,0,0,0,2.523-5.181,12.108,12.108,0,0,0,.712-3.971,5.4,5.4,0,0,0-1.8-4.138q-5.073-4.608-10.127-9.243c-1-.91-2.017-1.8-3.005-2.718a5.874,5.874,0,0,0-4.225-1.627c-5.347.026-10.695.01-16.042.01h-1.136c.144-.469.222-.794.342-1.1a25.057,25.057,0,0,1,2.456-4.833,21.8,21.8,0,0,0,2.493-5,13.4,13.4,0,0,0,.642-5.527,7.357,7.357,0,0,0-1.5-3.624,14.16,14.16,0,0,0-3.469-3.45,6.184,6.184,0,0,0-1.522-.786,2.865,2.865,0,0,0-3.639,1.623,7.328,7.328,0,0,0-.483,3.043,20.557,20.557,0,0,1-.424,4.369,15.847,15.847,0,0,1-.472,1.564,1.937,1.937,0,0,1-.284.53c-.394.52-.847.484-1.117-.112-.248-.549-.428-1.127-.657-1.684a2.327,2.327,0,0,0-1.611-1.446c-1.808-.453-3.631-.856-5.447-1.279-1.028.258-1.7-.335-2.429-.925a9.106,9.106,0,0,0-4.284-2.108,8.506,8.506,0,0,0-4.1.265,3.393,3.393,0,0,1-3.426-.605c-.98-.747-2.046-1.383-3.087-2.049a1.525,1.525,0,0,1-.722-1.695c.263-1.645.487-3.3.727-4.947.1-.7.291-.875,1.007-.91.229-.011.46,0,.689,0q27.945,0,55.887.012a6.8,6.8,0,0,1,2.112.311,3.818,3.818,0,0,1,2.761,3.594c.115,1.719.136,3.448.119,5.172q-.039,4.1-.188,8.192c-.059,1.652.108,1.21-1.154,2.038a32.812,32.812,0,0,0-5.565,4.477,9.694,9.694,0,0,0-2.119,3.016,2.713,2.713,0,0,0-.155,1.917" transform="translate(18.247 9.459)" fill="#fff"/>
      <path id="Path_13119" data-name="Path 13119" d="M648.963,386.837H633.956c-1.434,0-1.559-.166-1.21-1.553a12.219,12.219,0,0,0,.32-4.278,3.024,3.024,0,0,0-4.317-2.625c-1.166.476-2.276,1.094-3.4,1.671a22.623,22.623,0,0,1-5.43,2.169,15.127,15.127,0,0,1-2.559.222,1.209,1.209,0,0,1-1.07-.619,6.651,6.651,0,0,1-1.039-2.442c-.076-.368-.059-.693.321-.885a1.767,1.767,0,0,0,.928-1.955q-.231-2.62-.468-5.238c-.01-.115-.036-.228-.048-.342-.129-1.113.069-1.349,1.179-1.357,1.236-.01,2.474.018,3.709-.012a1.239,1.239,0,0,1,1.122.607,12.663,12.663,0,0,0,1.7,1.811,4.175,4.175,0,0,0,4.755.617,6.283,6.283,0,0,0,3.172-2.547c.265-.471.655-.483,1.1-.482q4.615.008,9.228,0c2.7,0,5.4.016,8.108-.01a3.359,3.359,0,0,1,2.412.943q6.144,5.613,12.311,11.2a4.805,4.805,0,0,0,.379.351,3.064,3.064,0,0,1,1.037,3.33,1.5,1.5,0,0,1-1.538,1.357c-.229.019-.46.011-.69.011H648.963Z" transform="translate(22.331 18.529)" fill="#fff"/>
      <path id="Path_13120" data-name="Path 13120" d="M573.977,361.037A32.779,32.779,0,0,0,580.89,376.1c-.182.228-.328.434-.5.617q-3.262,3.557-6.537,7.1a5.779,5.779,0,0,0-1.483,2.585,4.189,4.189,0,0,0-.161,1.1,17.077,17.077,0,0,0,1.961,7.7,19.8,19.8,0,0,0,1.2,1.784,1,1,0,0,1-.1,1.526q-.638.64-1.323,1.234a1,1,0,0,1-1.534.06,24.2,24.2,0,0,1-4.083-3.692,34.335,34.335,0,0,1-6.437-11.124,50.144,50.144,0,0,1-2.5-10.2,2.033,2.033,0,0,1,.833-2.09q6.133-4.89,12.231-9.823a6.161,6.161,0,0,0,.84-.737,8.966,8.966,0,0,0,.678-1.1" transform="translate(1.544 15.345)" fill="#fff"/>
      <path id="Path_13121" data-name="Path 13121" d="M615.375,384.263a5.43,5.43,0,0,0,2.961,4.005,7.369,7.369,0,0,1-.735.093q-16.379-.008-32.759-.025c-2.673,0-5.345-.077-8.017-.066a5.267,5.267,0,0,1-4.951-3.263c-.346-.672-.2-.856.567-.852q10.347.051,20.689.1c3.85.022,7.7.082,11.551.085,3.218,0,6.435-.049,9.653-.078.313,0,.626,0,1.042,0" transform="translate(6.135 23.949)" fill="#fff"/>
      <path id="Path_13122" data-name="Path 13122" d="M614.218,387.882c.852-.063,1.7-.165,2.558-.18,1.206-.023,2.414.03,3.621.023a15.319,15.319,0,0,0,6.685-1.433,14.951,14.951,0,0,0,2.488-1.526,2.554,2.554,0,0,1,1.655-.545c4.513.007,9.025-.007,13.538-.015q9.484-.021,18.969-.038a5.848,5.848,0,0,1,1.03.043c.432.077.624.4.4.762-.6.974-1.242,1.932-1.921,2.854a1.526,1.526,0,0,1-1.349.424c-2.1-.007-4.2,0-6.294,0q-16.729-.041-33.456-.088c-2.414-.008-4.829-.032-7.242-.051-.226,0-.451-.026-.678-.038,0-.063,0-.126,0-.188" transform="translate(21.959 23.953)" fill="#fff"/>
      <path id="Path_13123" data-name="Path 13123" d="M631.758,393.32c0-1.155-.022-2.187.008-3.218.019-.646.252-.852.922-.874.775-.026,1.552-.016,2.327-.018q10.384-.019,20.766-.043a2.734,2.734,0,0,1,1.691.487c.889.631,1.826,1.194,2.746,1.781.273.176.55.358.508.731s-.384.472-.682.571a13.846,13.846,0,0,1-4.488.714q-8.659-.039-17.319-.064c-1.781-.006-3.562-.007-5.343-.017-.338,0-.675-.029-1.135-.051" transform="translate(28.484 25.815)" fill="#fff"/>
      <path id="Path_13124" data-name="Path 13124" d="M598.532,393.206c-9.288-.041-18.449-.075-27.608-.183-.125,0-.247-.11-.486-.222a4.688,4.688,0,0,1,.467-.626c1.025-.967,2.069-1.911,3.089-2.882a1.122,1.122,0,0,1,1.087-.3,14.464,14.464,0,0,0,2.392.255q9.657.068,19.316.092c1.588.007,1.739.15,1.744,1.711,0,.682,0,1.363,0,2.158" transform="translate(5.666 25.737)" fill="#fff"/>
      <path id="Path_13125" data-name="Path 13125" d="M573.384,327.575c-.121.269-.265.531-.359.81a11.577,11.577,0,0,0-.581,3.819,2.123,2.123,0,0,1-.5,1.416c-.487.6-.934,1.24-1.412,1.851a6.105,6.105,0,0,1-.6.565c-.062-.446-.117-.714-.133-.983a13.192,13.192,0,0,1,1.873-7.244c.193-.351.428-.681.633-1.026a10.62,10.62,0,0,1,7.86-5.177,17.636,17.636,0,0,1,10.261,1.453,8.554,8.554,0,0,1,.827.46c.04.023.049.1.073.148-.022.048-.04.136-.066.139-.967.095-1.933.221-2.9.247a3.3,3.3,0,0,1-1.052-.342c-1.22-.424-2.437-.855-3.661-1.265a5.265,5.265,0,0,0-.808-.141l-.086.173a2.012,2.012,0,0,0,.38.318c.751.362,1.512.7,2.261,1.063a7.006,7.006,0,0,1,.712.457c-.213.49-.637.447-.963.572a2.374,2.374,0,0,1-2.429-.338,11.05,11.05,0,0,0-1.9-1.007,5.923,5.923,0,0,0-.954-.276c-.03.055-.062.11-.092.165a2.89,2.89,0,0,0,.355.375c.6.446,1.228.851,1.806,1.32.451.366.394.612-.124.9a1.621,1.621,0,0,1-2.317-.283c-.43-.383-.849-.777-1.287-1.148a3.453,3.453,0,0,0-.534-.32c-.054.049-.108.1-.163.148.152.248.3.5.46.746.291.427.613.833.892,1.268a.773.773,0,0,1-.235,1.246c-.326.236-.664.457-1.011.659-.579.339-.779.283-1.054-.349-.252-.579-.445-1.183-.672-1.771-.077-.2-.181-.388-.361-.77a2.334,2.334,0,0,0-.161.627c.111.767.214,1.537.384,2.293a1.762,1.762,0,0,1-.672,1.979c-.406.31-.777.667-1.277,1.1a2.258,2.258,0,0,1-.266-.659c0-.8.04-1.605.073-2.407.01-.246.045-.49.069-.734l-.28-.081" transform="translate(5.419 0.587)" fill="#fff"/>
      <path id="Path_13126" data-name="Path 13126" d="M575.5,376.151a2.552,2.552,0,0,1,.222.5,4.123,4.123,0,0,0,1.465,2.464,21.253,21.253,0,0,0,5.612,3.635c.936.432,1.91.784,2.866,1.173.206.084.41.172.811.338a4.657,4.657,0,0,1-.718.15q-6.286-.027-12.569-.066A2.214,2.214,0,0,1,571,382.973a2.309,2.309,0,0,1,.446-2.636c1.154-1.277,2.323-2.543,3.495-3.8a3.506,3.506,0,0,1,.563-.383" transform="translate(5.791 20.97)" fill="#fff"/>
      <path id="Path_13127" data-name="Path 13127" d="M569.021,395.97a2.835,2.835,0,0,1-.348-.187,28.028,28.028,0,0,1-9.51-11.689,24.784,24.784,0,0,1-1.928-9.829,8.013,8.013,0,0,1,.114-1.113,3.6,3.6,0,0,1,.233-.591c.108.424.181.655.225.889a45.79,45.79,0,0,0,5.316,14.858,31.664,31.664,0,0,0,5.572,7.094,3.3,3.3,0,0,0,.5.335Z" transform="translate(0.752 19.634)" fill="#fff"/>
      <path id="Path_13128" data-name="Path 13128" d="M575.6,339.975a4.294,4.294,0,0,1-.609-.526,14.234,14.234,0,0,1-2.559-5.209,2.4,2.4,0,0,1,.5-2.25c.316-.372.607-.766.937-1.122.46-.5.73-.451,1.019.145.325.671.593,1.371.961,2.017.409.719.888,1.4,1.363,2.082a1.26,1.26,0,0,1,.184,1.368c-.508,1.026-1.026,2.047-1.544,3.068-.063.128-.143.246-.248.427" transform="translate(6.376 3.991)" fill="#fff"/>
      <path id="Path_13129" data-name="Path 13129" d="M580.287,332.548a4.321,4.321,0,0,1-.44.738c-.549.626-1.129,1.225-1.706,1.826-.45.471-.775.487-1.1-.073-.757-1.317-1.461-2.666-2.157-4.018a1.133,1.133,0,0,1,.269-1.422A19.039,19.039,0,0,1,576.9,328.2a.668.668,0,0,1,1.1.2c.733,1.2,1.423,2.43,2.123,3.653a3.034,3.034,0,0,1,.16.5" transform="translate(7.27 3.047)" fill="#fff"/>
      <path id="Path_13130" data-name="Path 13130" d="M583.712,330.243c-.148.21-.257.508-.469.642-.771.491-1.568.947-2.375,1.379-.409.218-.7.1-1-.376s-.574-.991-.86-1.486c-.358-.62-.733-1.231-1.072-1.861-.353-.654-.266-.989.362-1.354.494-.285,1.011-.535,1.53-.777a1.21,1.21,0,0,1,1.619.335c.685.912,1.335,1.851,1.983,2.791a3.747,3.747,0,0,1,.28.707" transform="translate(8.381 2.396)" fill="#fff"/>
      <path id="Path_13131" data-name="Path 13131" d="M583.652,325.114a4.888,4.888,0,0,1,.991.462,6.182,6.182,0,0,1,2.134,3.065c.211.65.052.966-.6,1.19-.543.188-1.1.346-1.652.493a.815.815,0,0,1-1.088-.44,16.674,16.674,0,0,0-2.191-3.29c-.364-.439-.265-.722.281-.9.68-.219,1.38-.38,2.123-.58" transform="translate(9.609 1.976)" fill="#fff"/>
      <path id="Path_13132" data-name="Path 13132" d="M584.622,325.071a3.139,3.139,0,0,1,3.986.874,6.912,6.912,0,0,1,1.383,2.746c.206.805-.023,1.076-.841,1.039-.487-.022-.974-.069-1.461-.092a1,1,0,0,1-1-.687,9.871,9.871,0,0,0-1.994-3.583c-.048-.055-.043-.158-.076-.3" transform="translate(10.945 1.829)" fill="#fff"/>
      <path id="Path_13133" data-name="Path 13133" d="M588.29,324.84c.867.207,1.8.373,2.259,1.282.489.967.844,2,1.254,3.006a.7.7,0,0,1,.033.169c.095.682-.03,1.081-.38,1.213a1.383,1.383,0,0,1-1.375-.676,1.508,1.508,0,0,1-.155-.487,8.361,8.361,0,0,0-1.637-4.02,1.247,1.247,0,0,1-.128-.3l.129-.182" transform="translate(12.262 1.874)" fill="#fff"/>
      <path id="Path_13134" data-name="Path 13134" d="M571.976,333.553l1.272,3.157-2.788-.626a5.769,5.769,0,0,1,1.516-2.532" transform="translate(5.674 5.117)" fill="#fff"/>
      <path id="Path_13135" data-name="Path 13135" d="M615.131,378.552a19.86,19.86,0,0,0,1.544,1.754,17.592,17.592,0,0,0,1.8,1.277c-1.5.259-3.215-1.249-3.344-3.031" transform="translate(22.299 21.864)" fill="#fff"/>
      <path id="Path_13136" data-name="Path 13136" d="M626.5,358.371a3.2,3.2,0,0,1-3.325,2.989,18.288,18.288,0,0,0,1.84-1.29,17.784,17.784,0,0,0,1.485-1.7" transform="translate(25.292 14.353)" fill="#fff"/>
      <path id="Path_13137" data-name="Path 13137" d="M634.18,351.547a1.454,1.454,0,1,1-1.449,1.511,1.483,1.483,0,0,1,1.449-1.511" transform="translate(28.849 11.814)"/>
      <path id="Path_13138" data-name="Path 13138" d="M634.17,364.035a1.444,1.444,0,1,1,.042-2.887,1.444,1.444,0,1,1-.042,2.887" transform="translate(28.85 15.387)"/>
      <path id="Path_13139" data-name="Path 13139" d="M622.736,352.982a1.448,1.448,0,1,1-2.9.041,1.448,1.448,0,1,1,2.9-.041" transform="translate(24.051 11.814)"/>
      <path id="Path_13140" data-name="Path 13140" d="M642.591,362.6a1.439,1.439,0,1,1-1.393-1.448,1.421,1.421,0,0,1,1.393,1.448" transform="translate(31.447 15.386)"/>
      <path id="Path_13141" data-name="Path 13141" d="M641.126,354.453a1.427,1.427,0,0,1-1.416-1.433,1.441,1.441,0,1,1,2.88.051,1.421,1.421,0,0,1-1.464,1.382" transform="translate(31.447 11.813)"/>
      <path id="Path_13142" data-name="Path 13142" d="M604.377,355.016a3.461,3.461,0,0,0-2.588-.183,2.944,2.944,0,0,0,2.588.183m-4.678,4.572.236.019a1.678,1.678,0,0,0,.178-.578,4.762,4.762,0,0,0-.674-2.3c-.049.977-.356,1.98.259,2.86m3.675-7.314-1.162,1.343c.292.047.5.081.7.11.594.082,1.2.13,1.781.255a1.008,1.008,0,0,1,.847.77,1.05,1.05,0,0,1-.519,1.1,3.164,3.164,0,0,1-1.022.387,4.289,4.289,0,0,0-.9.183c.523.373,1.048.742,1.566,1.122.288.211.715.375.478.86-.154.314-.475.276-1.038-.1-.664-.453-1.32-.917-1.985-1.368a1.27,1.27,0,0,0-.67-.232,5.992,5.992,0,0,0,.29.56c.443.671.9,1.332,1.345,2,.128.191.251.384.365.585a.453.453,0,0,1-.115.678c-.276.174-.5.033-.667-.192-.317-.443-.613-.9-.922-1.35a1.94,1.94,0,0,0-.655-.642c0,.294.012.589,0,.881a1.257,1.257,0,0,1-1.168,1.354,1.234,1.234,0,0,1-1.368-1.044,10.006,10.006,0,0,1-.191-1.361c-.029-.246-.04-.494-.073-.91-.506.394-.9.709-1.3,1.006a2.524,2.524,0,0,1-1.25.694c.122-.967,1.817-3.059,3.614-4.535,1.747-1.438,3.14-2.217,4.018-2.154" transform="translate(15.083 12.083)"/>
      <path id="Path_13143" data-name="Path 13143" d="M586.766,374.644l5.413-7.234c.873.321,8,6.628,8.676,7.762a3.838,3.838,0,0,1-.591-.261q-3.359-2.33-6.708-4.672c-.118-.084-.224-.181-.342-.263-.541-.376-.744-.354-1.164.136-.486.567-.95,1.151-1.452,1.7a11.956,11.956,0,0,1-2.982,2.451c-.229.128-.48.215-.851.38" transform="translate(11.743 17.717)"/>
      <path id="Path_13144" data-name="Path 13144" d="M576.381,356.829a3.352,3.352,0,0,1,2.443.472,1.376,1.376,0,0,1,.719,1.288,12.959,12.959,0,0,1-.236,2.3c-.213.976-.543,1.926-.833,2.884a3.044,3.044,0,0,1-.3.5,8.242,8.242,0,0,1-.06-.934c.073-1.057.1-2.121.263-3.164a2.6,2.6,0,0,0-1.266-2.854c-.246-.155-.483-.324-.725-.487" transform="translate(7.878 13.755)"/>
      <path id="Path_13145" data-name="Path 13145" d="M586.716,335.373a7.216,7.216,0,0,1-.608,1.3.741.741,0,0,1-1.2.04,2.237,2.237,0,0,1-.088-2.77.849.849,0,0,1,1.394.111,6.944,6.944,0,0,1,.5,1.319" transform="translate(10.857 5.146)"/>
      <path id="Path_13146" data-name="Path 13146" d="M590.994,334.721c0,.874-.35,1.446-.786,1.508a1.117,1.117,0,0,1-1.11-1,2.818,2.818,0,0,1,.017-1.253,1.122,1.122,0,0,1,.615-.626.707.707,0,0,1,.866.391,6.849,6.849,0,0,1,.4.978" transform="translate(12.588 5.025)"/>
      <path id="Path_13147" data-name="Path 13147" d="M586.048,338.844a2.519,2.519,0,0,1-.748.235,4.52,4.52,0,0,0-3.211,1.209c-.036.03-.107.019-.251.043a2.272,2.272,0,0,1,1.529-1.787,3.094,3.094,0,0,1,2.654-.011c.01.1.018.207.027.311" transform="translate(9.909 6.86)"/>
      <path id="Path_13148" data-name="Path 13148" d="M585.764,331.513a1.865,1.865,0,0,1,.259.025c.274.052.538.188.457.494a.625.625,0,0,1-.471.366,2.4,2.4,0,0,0-2.194,1.1.624.624,0,0,1-.576.15c-.289-.124-.233-.412-.115-.667a3,3,0,0,1,2.64-1.468" transform="translate(10.352 4.358)"/>
      <path id="Path_13149" data-name="Path 13149" d="M571.6,339.515c0-.483.233-.685.712-.565a1.637,1.637,0,0,1,.607.3,4.058,4.058,0,0,1,1.372,2.231c.147.563-.165.833-.709.668a3.637,3.637,0,0,1-1.981-2.636" transform="translate(6.098 7.113)"/>
    </g>
  </g>
</svg>
