<svg id="Group_176" data-name="Group 176" xmlns="http://www.w3.org/2000/svg" width="25.982" height="21.105" viewBox="0 0 25.982 21.105">
  <path id="Path_7" data-name="Path 7" d="M1040.821,510.8a10.654,10.654,0,0,1-3.061.842,5.369,5.369,0,0,0,2.346-2.951,10.627,10.627,0,0,1-3.394,1.293,5.328,5.328,0,0,0-9.213,3.647,5.542,5.542,0,0,0,.136,1.214,15.132,15.132,0,0,1-10.989-5.568,5.33,5.33,0,0,0,1.648,7.112,5.25,5.25,0,0,1-2.409-.665v.065a5.344,5.344,0,0,0,4.272,5.233,5.5,5.5,0,0,1-1.4.18,5.382,5.382,0,0,1-1.007-.093,5.349,5.349,0,0,0,4.979,3.7,10.714,10.714,0,0,1-6.621,2.275,11.416,11.416,0,0,1-1.269-.071,15.159,15.159,0,0,0,23.333-12.765l-.016-.69a10.744,10.744,0,0,0,2.665-2.76Zm0,0" transform="translate(-1014.839 -508.301)" fill="#fefaf5"/>
</svg>
