<svg xmlns="http://www.w3.org/2000/svg" width="38.337" height="38.337" viewBox="0 0 38.337 38.337">
  <g id="Path_12930" data-name="Path 12930" fill="none">
    <path d="M19.168,0A19.168,19.168,0,1,1,0,19.168,19.168,19.168,0,0,1,19.168,0Z" stroke="none"/>
    <path d="M 19.16839599609375 0.9999961853027344 C 14.3154468536377 0.9999961853027344 9.752956390380859 2.889835357666016 6.321395874023438 6.321395874023438 C 2.889835357666016 9.752956390380859 0.9999961853027344 14.3154468536377 0.9999961853027344 19.16839599609375 C 0.9999961853027344 24.02135467529297 2.889835357666016 28.58383560180664 6.321395874023438 32.01539611816406 C 9.752956390380859 35.44695663452148 14.3154468536377 37.33679580688477 19.16839599609375 37.33679580688477 C 24.02135467529297 37.33679580688477 28.58383560180664 35.44695663452148 32.01539611816406 32.01539611816406 C 35.44695663452148 28.58383560180664 37.33679580688477 24.02135467529297 37.33679580688477 19.16839599609375 C 37.33679580688477 14.3154468536377 35.44695663452148 9.752956390380859 32.01539611816406 6.321395874023438 C 28.58383560180664 2.889835357666016 24.02135467529297 0.9999961853027344 19.16839599609375 0.9999961853027344 M 19.16839599609375 -3.814697265625e-06 C 29.75481605529785 -3.814697265625e-06 38.33679580688477 8.581985473632812 38.33679580688477 19.16839599609375 C 38.33679580688477 29.75481605529785 29.75481605529785 38.33679580688477 19.16839599609375 38.33679580688477 C 8.581985473632812 38.33679580688477 -3.814697265625e-06 29.75481605529785 -3.814697265625e-06 19.16839599609375 C -3.814697265625e-06 8.581985473632812 8.581985473632812 -3.814697265625e-06 19.16839599609375 -3.814697265625e-06 Z" stroke="none" fill="#fff"/>
  </g>
</svg>
