<svg xmlns="http://www.w3.org/2000/svg" width="208.213" height="37.59" viewBox="0 0 208.213 37.59">
  <g id="Layer_1-2" transform="translate(-0.005 0)">
    <g id="Group_2753" data-name="Group 2753" transform="translate(0.005 0)">
      <path id="Path_12944" data-name="Path 12944" d="M218.452,13.043l-1.173-.929a12.511,12.511,0,0,0-7.835-2.733,12.675,12.675,0,0,0-8.451,3.221l-1.873-2.094a15.416,15.416,0,0,1,10.324-3.936,15.209,15.209,0,0,1,8.4,2.5A23.822,23.822,0,0,1,236.557,0a24.209,24.209,0,0,1,19.172,9.753l-2.269,1.66a20.96,20.96,0,0,0-34.148.4l-.853,1.226Z" transform="translate(-47.516 0)" fill="#18242a"/>
      <rect id="Rectangle_1029" data-name="Rectangle 1029" width="21.669" height="4.957" transform="translate(0 36.289) rotate(-89.92)" fill="#18242a"/>
      <path id="Path_12945" data-name="Path 12945" d="M25.118,33.206l-.015,9.5H20.458l.015-8.832a2.56,2.56,0,0,0-2.688-2.825c-1.706,0-2.878.99-2.886,3.183l-.015,8.451H10.24L10.263,27.2h4.644v1.462a5.3,5.3,0,0,1,4.431-1.881c3.129,0,5.787,2.238,5.779,6.418" transform="translate(-2.447 -6.39)" fill="#18242a"/>
      <path id="Path_12946" data-name="Path 12946" d="M44.683,38.094c0,3.563-3.1,5.071-6.449,5.071-3.1,0-5.444-1.188-6.655-3.693l4.028-2.284a2.534,2.534,0,0,0,2.627,1.827c1.112,0,1.675-.335,1.675-.959,0-1.706-7.614-.815-7.606-6.175,0-3.373,2.855-5.071,6.076-5.071a6.76,6.76,0,0,1,6.03,3.32l-3.967,2.132A2.243,2.243,0,0,0,38.372,30.9c-.807,0-1.3.3-1.3.868,0,1.766,7.614.6,7.606,6.327" transform="translate(-7.539 -6.397)" fill="#18242a"/>
      <path id="Path_12947" data-name="Path 12947" d="M65.5,27.423,65.475,42.9H60.83V41.44A5.283,5.283,0,0,1,56.4,43.321c-3.129,0-5.787-2.238-5.779-6.418l.015-9.5H55.28l-.015,8.832a2.56,2.56,0,0,0,2.688,2.825c1.706,0,2.878-.99,2.886-3.183l.015-8.451H65.5Z" transform="translate(-12.082 -6.538)" fill="#18242a"/>
      <path id="Path_12948" data-name="Path 12948" d="M82.972,27.04V32.3c-1.926-.312-4.652.457-4.66,3.525v7H73.66l.023-15.479h4.644v2.764a4.659,4.659,0,0,1,4.652-3.061" transform="translate(-17.58 -6.452)" fill="#18242a"/>
      <path id="Path_12949" data-name="Path 12949" d="M98.167,35.075A3.683,3.683,0,1,0,90.8,35.06a3.686,3.686,0,1,0,7.37.015m4.652-7.736L102.8,42.818H98.159V41.356a5.8,5.8,0,0,1-4.614,1.881c-4.058,0-7.393-3.571-7.385-8.185s3.358-8.17,7.408-8.162a5.812,5.812,0,0,1,4.614,1.9V27.332h4.644Z" transform="translate(-20.562 -6.416)" fill="#18242a"/>
      <path id="Path_12950" data-name="Path 12950" d="M126.418,33.346l-.015,9.5h-4.644l.015-8.832a2.56,2.56,0,0,0-2.688-2.825c-1.706,0-2.878.99-2.886,3.183l-.015,8.451H111.54l.023-15.487h4.644V28.8a5.3,5.3,0,0,1,4.431-1.881c3.129,0,5.787,2.238,5.779,6.418" transform="translate(-26.618 -6.423)" fill="#18242a"/>
      <path id="Path_12951" data-name="Path 12951" d="M133.3,35.132a8.186,8.186,0,0,1,15.2-4.188l-4.058,2.345a3.192,3.192,0,0,0-3-1.736,3.405,3.405,0,0,0-3.5,3.586,3.4,3.4,0,0,0,3.495,3.594,3.179,3.179,0,0,0,3.007-1.728l4.051,2.33a7.89,7.89,0,0,1-7,3.982,8.015,8.015,0,0,1-8.193-8.185" transform="translate(-31.811 -6.435)" fill="#18242a"/>
      <path id="Path_12952" data-name="Path 12952" d="M164.829,33.566a3.49,3.49,0,0,0-6.662-.008h6.655Zm-2.855,5.642a4.071,4.071,0,0,0,2.977-1.173l3.708,2.139a7.878,7.878,0,0,1-6.753,3.183c-5.292-.008-8.573-3.571-8.566-8.185a7.934,7.934,0,0,1,8.246-8.162,7.809,7.809,0,0,1,7.85,8.185,8.635,8.635,0,0,1-.19,1.858l-10.987-.015c.586,1.614,2.01,2.17,3.708,2.17" transform="translate(-36.592 -6.445)" fill="#18242a"/>
      <g id="Group_2752" data-name="Group 2752" transform="translate(133.696 13.888)">
        <path id="Path_12953" data-name="Path 12953" d="M189.389,38.062a5.474,5.474,0,0,1-4.957,2.84,5.893,5.893,0,0,1,.015-11.786,5.146,5.146,0,0,1,4.835,2.817l.327.708,2.49-1.454-.266-.579a7.9,7.9,0,0,0-7.378-4.378,8.783,8.783,0,1,0-.023,17.565,8.317,8.317,0,0,0,7.5-4.3l.3-.586-2.5-1.492-.35.647Z" transform="translate(-175.6 -20.147)" fill="#18242a"/>
        <rect id="Rectangle_1030" data-name="Rectangle 1030" width="21.631" height="2.954" transform="translate(17.68 23.318) rotate(-89.92)" fill="#18242a"/>
        <path id="Path_12954" data-name="Path 12954" d="M213.675,26.27a8.783,8.783,0,1,0,8.8,8.794A8.725,8.725,0,0,0,213.675,26.27Zm5.817,8.794a5.848,5.848,0,1,1-5.825-5.9A5.8,5.8,0,0,1,219.492,35.064Z" transform="translate(-182.572 -20.156)" fill="#18242a"/>
        <path id="Path_12955" data-name="Path 12955" d="M241.12,35.633c0,3.419-1.774,5.459-4.721,5.452-2.444,0-3.845-1.462-3.845-4.013l.015-10.332h-2.985l-.015,10.324c0,4.188,2.627,6.9,6.7,6.906a6.661,6.661,0,0,0,4.842-1.827v1.492h2.947l.023-16.888h-2.954l-.015,8.87Z" transform="translate(-188.478 -20.268)" fill="#18242a"/>
        <path id="Path_12956" data-name="Path 12956" d="M264.935,18.248l-.015,8.307a8.052,8.052,0,0,0-5.946-2.467,8.783,8.783,0,0,0-.023,17.565A8.045,8.045,0,0,0,264.9,39.2v2.117h2.947l.03-23.078h-2.954Zm-5.893,20.512a5.893,5.893,0,1,1,5.87-5.886A5.815,5.815,0,0,1,259.042,38.759Z" transform="translate(-193.41 -18.24)" fill="#18242a"/>
      </g>
    </g>
  </g>
</svg>
