<svg xmlns="http://www.w3.org/2000/svg" width="158.999" height="28.705" viewBox="0 0 158.999 28.705">
  <g id="Layer_1-2" transform="translate(-0.005 0)">
    <g id="Group_2753" data-name="Group 2753" transform="translate(0.005 0)">
      <path id="Path_12944" data-name="Path 12944" d="M213.882,9.96l-.9-.709A9.554,9.554,0,0,0,207,7.163a9.679,9.679,0,0,0-6.454,2.459l-1.43-1.6A11.772,11.772,0,0,1,207,5.018a11.614,11.614,0,0,1,6.413,1.907A18.191,18.191,0,0,1,227.709,0a18.487,18.487,0,0,1,14.64,7.448l-1.733,1.268a16.006,16.006,0,0,0-26.077.308l-.651.936Z" transform="translate(-83.35 0)" fill="#18242a"/>
      <rect id="Rectangle_1029" data-name="Rectangle 1029" width="16.547" height="3.785" transform="translate(0 27.712) rotate(-89.92)" fill="#18242a"/>
      <path id="Path_12945" data-name="Path 12945" d="M21.6,31.687l-.012,7.256H18.043l.012-6.745A1.955,1.955,0,0,0,16,30.042c-1.3,0-2.2.756-2.2,2.43l-.012,6.454H10.24L10.257,27.1H13.8v1.116a4.051,4.051,0,0,1,3.384-1.436c2.39,0,4.419,1.709,4.413,4.9" transform="translate(-4.289 -11.209)" fill="#18242a"/>
      <path id="Path_12946" data-name="Path 12946" d="M41.586,35.427c0,2.721-2.366,3.872-4.925,3.872-2.366,0-4.157-.907-5.082-2.82l3.076-1.744a1.935,1.935,0,0,0,2.006,1.4c.849,0,1.279-.256,1.279-.733,0-1.3-5.814-.622-5.808-4.715,0-2.576,2.18-3.872,4.64-3.872a5.162,5.162,0,0,1,4.6,2.535l-3.029,1.628a1.713,1.713,0,0,0-1.581-1.041c-.616,0-.994.233-.994.663,0,1.349,5.814.459,5.808,4.832" transform="translate(-13.221 -11.222)" fill="#18242a"/>
      <path id="Path_12947" data-name="Path 12947" d="M61.981,27.417l-.017,11.82H58.417V38.121a4.034,4.034,0,0,1-3.384,1.436c-2.39,0-4.419-1.709-4.413-4.9l.012-7.256h3.547l-.012,6.745A1.955,1.955,0,0,0,56.219,36.3c1.3,0,2.2-.756,2.2-2.43l.012-6.454Z" transform="translate(-21.191 -11.469)" fill="#18242a"/>
      <path id="Path_12948" data-name="Path 12948" d="M80.771,27.04v4.018c-1.471-.238-3.552.349-3.558,2.692v5.343H73.66l.017-11.82h3.547v2.111a3.558,3.558,0,0,1,3.552-2.337" transform="translate(-30.835 -11.318)" fill="#18242a"/>
      <path id="Path_12949" data-name="Path 12949" d="M95.329,33.14a2.812,2.812,0,1,0-5.622-.012,2.815,2.815,0,1,0,5.628.012m3.552-5.907-.017,11.82H95.323V37.937A4.432,4.432,0,0,1,91.8,39.373c-3.1,0-5.646-2.727-5.64-6.25s2.564-6.239,5.657-6.233a4.438,4.438,0,0,1,3.523,1.448V27.227h3.547Z" transform="translate(-36.067 -11.255)" fill="#18242a"/>
      <path id="Path_12950" data-name="Path 12950" d="M122.9,31.827l-.012,7.256h-3.547l.012-6.745a1.955,1.955,0,0,0-2.052-2.157c-1.3,0-2.2.756-2.2,2.43l-.012,6.454H111.54l.017-11.826H115.1v1.116a4.051,4.051,0,0,1,3.384-1.436c2.39,0,4.419,1.709,4.413,4.9" transform="translate(-46.691 -11.268)" fill="#18242a"/>
      <path id="Path_12951" data-name="Path 12951" d="M133.3,33.2a6.251,6.251,0,0,1,11.611-3.2l-3.1,1.791a2.437,2.437,0,0,0-2.291-1.326,2.742,2.742,0,0,0-.006,5.483,2.428,2.428,0,0,0,2.3-1.32l3.093,1.779a6.025,6.025,0,0,1-5.349,3.041A6.12,6.12,0,0,1,133.3,33.2" transform="translate(-55.799 -11.289)" fill="#18242a"/>
      <path id="Path_12952" data-name="Path 12952" d="M162.114,32.016a2.665,2.665,0,0,0-5.087-.006h5.082Zm-2.18,4.308a3.109,3.109,0,0,0,2.273-.9l2.832,1.634a6.016,6.016,0,0,1-5.157,2.43c-4.041-.006-6.547-2.727-6.541-6.25a6.058,6.058,0,0,1,6.3-6.233,5.963,5.963,0,0,1,5.994,6.25,6.594,6.594,0,0,1-.145,1.419l-8.39-.012a2.682,2.682,0,0,0,2.832,1.657" transform="translate(-64.187 -11.306)" fill="#18242a"/>
      <g id="Group_2752" data-name="Group 2752" transform="translate(102.095 10.605)">
        <path id="Path_12953" data-name="Path 12953" d="M186.13,35.265a4.18,4.18,0,0,1-3.785,2.169,4.5,4.5,0,0,1,.012-9,3.93,3.93,0,0,1,3.692,2.151l.25.541,1.9-1.111-.2-.442a6.029,6.029,0,0,0-5.634-3.343,6.707,6.707,0,1,0-.017,13.413,6.351,6.351,0,0,0,5.727-3.285l.233-.448-1.913-1.14-.267.494Z" transform="translate(-175.6 -21.584)" fill="#18242a"/>
        <rect id="Rectangle_1030" data-name="Rectangle 1030" width="16.518" height="2.256" transform="translate(13.501 17.807) rotate(-89.92)" fill="#18242a"/>
        <path id="Path_12954" data-name="Path 12954" d="M211.582,26.27a6.707,6.707,0,1,0,6.721,6.715A6.663,6.663,0,0,0,211.582,26.27Zm4.442,6.715a4.465,4.465,0,1,1-4.448-4.506A4.428,4.428,0,0,1,216.024,32.985Z" transform="translate(-187.831 -21.601)" fill="#18242a"/>
        <path id="Path_12955" data-name="Path 12955" d="M238.39,33.531c0,2.611-1.355,4.169-3.6,4.163a2.732,2.732,0,0,1-2.936-3.064l.012-7.89h-2.279l-.012,7.884c0,3.2,2.006,5.268,5.117,5.274a5.087,5.087,0,0,0,3.7-1.4v1.14h2.25l.017-12.9H238.4l-.012,6.774Z" transform="translate(-198.191 -21.798)" fill="#18242a"/>
        <path id="Path_12956" data-name="Path 12956" d="M261.461,18.246l-.012,6.343a6.149,6.149,0,0,0-4.541-1.884,6.707,6.707,0,0,0-.017,13.413,6.144,6.144,0,0,0,4.547-1.872v1.616h2.25l.023-17.623h-2.256Zm-4.5,15.664a4.5,4.5,0,1,1,4.483-4.494A4.44,4.44,0,0,1,256.961,33.909Z" transform="translate(-206.843 -18.24)" fill="#18242a"/>
      </g>
    </g>
  </g>
</svg>
